<svg width="1015" height="1015" viewBox="0 0 1015 1015" fill="none" xmlns="http://www.w3.org/2000/svg">
<g clip-path="url(#clip0_6_351)">
<path d="M682.348 152.406L679.044 153.968L679.411 153.325L682.348 152.406Z" fill="black"/>
<path d="M437.435 359.073C430.002 366.517 408.989 373.225 393.94 376.349C390.82 374.512 385.59 370.468 379.992 362.841C374.395 355.214 368.338 344.187 363.475 326.727L394.674 283.905L421.744 261.667C425.139 271.683 429.176 284.548 432.572 297.965C445.694 348.965 437.527 358.982 437.435 359.073Z" fill="black"/>
<path d="M624.905 286.11C624.354 293.37 623.528 302.1 622.519 311.105C618.023 347.771 612.425 357.971 610.957 360.176C606.736 361.83 594.256 363.209 575.17 360.728C559.02 358.614 547.366 354.938 542.136 352.641C541.585 346.117 541.493 327.646 546.999 277.381C548.467 263.781 550.119 250.456 551.587 239.429L569.389 241.267L621.326 279.402L624.905 286.11Z" fill="black"/>
<path d="M742.544 535.048C742.218 537.443 741.421 539.748 740.199 541.833C738.978 543.917 737.356 545.738 735.428 547.19C733.5 548.643 731.303 549.698 728.965 550.296C726.626 550.893 724.193 551.02 721.806 550.67C541.86 525.124 402.749 526.594 284.101 555.449C282.691 555.807 281.243 555.992 279.788 556C275.323 555.964 271.023 554.299 267.696 551.317C264.368 548.335 262.24 544.239 261.711 539.799C261.182 535.358 262.288 530.877 264.822 527.194C267.356 523.512 271.143 520.881 275.475 519.794C295.112 515.016 315.208 510.881 335.855 507.572L316.86 456.02L336.222 393.533L345.398 368.263C348.675 374.317 352.482 380.068 356.776 385.447C371 402.998 384.58 407.777 387.15 408.512L390.82 409.615L394.491 408.971C399.262 408.144 441.289 400.517 460.009 381.955C474.782 367.252 475.975 338.122 463.771 290.154C458.999 271.5 453.218 254.132 449.273 242.829L506.165 234.742L519.562 236.121C518.002 248.802 516.075 264.148 514.424 279.586C512.13 301.548 510.661 319.651 510.111 333.252C509.01 359.533 511.395 367.528 516.167 373.041C526.077 384.62 552.872 389.949 567.921 392.155C576.731 393.477 585.623 394.183 594.532 394.268C606.369 394.268 618.573 392.706 627.199 387.928C635.825 383.149 644.726 373.225 651.424 335.273H651.516L675.558 393.166L683.174 455.929L675.925 507.572C692.564 509.594 709.571 511.83 726.944 514.281C731.763 514.964 736.113 517.535 739.038 521.43C741.964 525.324 743.225 530.223 742.544 535.048Z" fill="black"/>
<path d="M423.028 139.174C415.523 137.706 408.108 135.803 400.822 133.476C392.59 130.919 384.228 128.803 375.771 127.136C367.421 125.39 361.364 124.287 356.409 123.552C346.315 120.428 339.709 118.773 320.989 114.914C309.129 112.294 297.062 110.725 284.927 110.227C274.365 109.898 263.858 108.575 253.544 106.276C246.666 104.877 239.981 102.656 233.632 99.6598C226.474 96.4435 219.133 93.1354 206.195 92.6759L199.404 91.2056C187.447 88.794 175.624 85.7574 163.984 82.1082C151.446 78.1696 138.703 74.9179 125.811 72.3676C121.759 71.5146 117.535 72.3085 114.067 74.5747C110.6 76.8408 108.173 80.3936 107.321 84.4515C106.469 88.5093 107.262 92.7399 109.525 96.2124C111.788 99.6849 115.336 102.115 119.388 102.968C131.378 105.329 143.233 108.335 154.9 111.973C160.222 113.627 165.544 115.282 172.793 117.119C165.838 132.664 162.302 149.525 162.424 166.558C162.424 197.066 174.17 225.185 195.642 245.861C217.115 266.537 245.102 277.197 275.659 277.197C306.215 277.197 334.662 266.078 355.675 245.769C376.689 225.461 388.801 197.066 388.801 166.558V162.515L391.738 163.342C399.92 165.987 408.255 168.135 416.697 169.774C417.748 170.032 418.827 170.156 419.909 170.142C423.811 170.194 427.59 168.78 430.503 166.179C433.415 163.577 435.247 159.978 435.639 156.089C436.031 152.201 434.953 148.307 432.618 145.176C430.284 142.044 426.862 139.903 423.028 139.174ZM310.62 167.109L295.02 188.888L274.833 201.661L253.177 190.818L236.476 168.763L248.314 146.158L269.419 142.574C274.282 143.217 278.228 143.493 282.266 143.86C288.964 144.504 295.388 145.055 305.94 146.985L310.62 167.109ZM357.602 162.79V166.558C357.602 211.861 322.366 245.953 275.659 245.953C228.952 245.953 193.623 211.861 193.623 166.558C193.623 151.028 197.202 136.601 204.084 124.471C208.508 125.783 212.831 127.411 217.023 129.341L224.455 132.282L203.993 171.52L235.1 212.504L276.393 233.272L314.199 209.38L340.351 173.082L335.488 152.406L343.012 153.325L349.527 154.152L357.602 156.817C357.694 158.747 357.694 160.769 357.602 162.79Z" fill="black"/>
<path d="M679.411 153.325L679.044 153.968L682.348 152.406L679.411 153.325Z" fill="black"/>
<path d="M908.633 88.265C908.218 86.2556 907.411 84.3478 906.259 82.6506C905.107 80.9533 903.633 79.5 901.92 78.3736C900.207 77.2472 898.29 76.4697 896.277 76.0856C894.264 75.7016 892.195 75.7184 890.189 76.1352C871.378 80.0866 861.834 82.3839 852.658 84.5893C843.482 86.7948 835.957 88.5407 820.541 91.8489C803.932 90.5624 794.297 93.7786 786.773 97.5462C780.35 98.3733 773.192 99.476 760.713 102.049L727.495 109.033L694.369 116.017C686.564 117.556 678.938 119.896 671.612 123.001H671.52C667.024 124.379 663.261 125.757 658.857 127.411C654.452 129.066 648.304 131.271 639.587 134.12L634.448 135.774C629.529 136.53 624.559 136.899 619.583 136.876C610.383 136.86 601.211 137.878 592.238 139.909C588.496 140.736 585.189 142.912 582.947 146.024C580.705 149.136 579.686 152.966 580.083 156.782C580.48 160.599 582.266 164.136 585.1 166.718C587.934 169.301 591.618 170.748 595.449 170.785C596.501 170.799 597.55 170.675 598.569 170.417C605.593 168.885 612.761 168.115 619.95 168.12L626.557 167.936C626.829 197.917 638.436 226.681 659.04 248.434C680.513 271.04 709.051 283.446 739.516 283.446C801.271 283.446 851.557 230.975 851.557 166.558C851.557 149.006 848.712 132.833 843.207 118.865L859.907 114.914C869.267 112.709 878.168 110.595 896.52 106.736C898.527 106.32 900.432 105.512 902.127 104.358C903.822 103.205 905.273 101.728 906.398 100.013C907.523 98.298 908.299 96.3776 908.682 94.3618C909.066 92.346 909.049 90.2743 908.633 88.265ZM714.097 146.249L718.043 144.871C723.733 144.136 728.045 143.768 732.633 143.493C737.221 143.217 740.8 142.849 745.755 142.298L758.969 149.558L768.512 171.979L764.567 198.72L739.149 211.402L711.436 198.904L701.159 171.061L714.097 146.249ZM739.516 252.202C694.369 252.202 657.756 213.791 657.756 166.558C657.756 164.996 657.756 163.709 657.847 162.515C664.728 160.542 671.398 157.895 677.76 154.612L679.044 153.968L679.411 153.325L682.348 152.406L679.044 153.968L671.153 169.131L689.597 219.304L739.791 241.91L789.709 217.007L796.867 168.304L782.46 134.395C787.25 132.569 791.884 130.356 796.316 127.779H796.408C800.721 127.228 805.492 126.584 812.008 125.39C817.513 136.601 820.358 150.568 820.358 166.558C820.358 213.791 784.112 252.202 739.516 252.202Z" fill="black"/>
</g>
<path d="M81.9425 684.74L96.6273 680.737L97.2096 680.672C99.5387 680.411 104.478 680.644 112.028 681.37C121.733 680.283 134.84 681.501 151.351 685.024C158.803 689.562 164.754 695.315 169.203 702.285C170.946 706.152 172.043 710.09 172.492 714.102L172.535 714.49C173.187 720.313 171.518 727.051 167.528 734.704C165.201 738.502 161.423 742.201 156.192 745.8C154.928 747.383 152.054 749.802 147.571 753.055C145.689 754.969 144.784 756.25 144.857 756.897C157.797 771.825 166.411 781.473 170.7 785.841C175.018 791.646 178.731 794.375 181.836 794.027C191.729 793.443 196.805 794.316 197.066 796.645L199.641 805.594C199.454 806.27 198.973 806.651 198.196 806.738L196.644 806.912L186.251 810.631C185.056 809.324 180.9 809.069 173.783 809.866C166.796 810.648 163.259 810.651 163.172 809.875C162.825 807.948 161.945 805.361 160.533 802.112L160.187 800.776L160.1 799.999C159.97 798.835 157.825 796.061 153.666 791.679C152.7 788.905 151.8 787.302 150.965 786.872C147.525 783.064 142.191 775.211 134.962 763.311C133.379 762.047 132.135 761.466 131.229 761.567L119.5 765.633C113.935 766.256 111.342 768.25 111.719 771.614L112.088 774.914C113.929 791.347 116.078 799.427 118.537 799.151L121.082 799.063L123.217 798.824L127.767 797.331C128.731 798.927 129.431 801.665 129.866 805.547L129.307 807.575L129.892 811.047C130.023 812.212 125.631 813.948 116.718 816.257L116.093 815.934L100.909 817.241L90.0398 818.458C88.7458 818.603 87.9177 817.058 87.5554 813.823L87.1858 810.524C86.6351 805.607 87.5244 803.017 89.8535 802.757L98.3706 799.837L98.4327 796.882C94.3676 768.775 91.3247 750.379 89.3041 741.696C86.0009 713.372 84.0258 699.247 83.3788 699.319L82.5589 699.018L69.6428 703.019L68.8446 702.912L69.0372 701.122L66.708 701.383L66.6428 700.8L66.2546 700.844L66.3819 698.471L66.2515 697.306C66.1645 696.53 65.502 695.294 64.2639 693.598C66.0465 693.137 66.8944 692.518 66.8074 691.741L65.4689 690.319C65.3675 689.413 70.8587 687.553 81.9425 684.74ZM98.7872 684.229L98.2701 684.877L98.9176 685.394L102.217 685.024L102.152 684.442L99.5636 684.142L98.7872 684.229ZM103.407 688.625C101.351 688.986 100.352 689.426 100.41 689.943C100.468 690.461 101.014 690.662 102.05 690.546L102.438 690.502C105.917 689.982 107.75 689.383 107.936 688.707L107.289 688.19L103.407 688.625ZM116.694 689.692L117.514 689.993L119.455 689.776C120.619 689.645 121.295 689.242 121.481 688.566C121.423 688.048 120.618 687.877 119.065 688.05C117.771 688.195 116.981 688.743 116.694 689.692ZM140.568 687.018L140.202 687.256L140.223 687.45C140.799 687.909 141.54 688.088 142.445 687.987L142.424 687.793C142.395 687.534 141.776 687.276 140.568 687.018ZM68.6894 698.016L68.7763 698.793L69.3804 698.921C70.2862 698.82 71.0046 698.215 71.5356 697.108L71.427 696.137L70.5636 695.448L69.399 695.578C68.8814 695.636 68.6449 696.449 68.6894 698.016ZM147.084 689.04L147.105 689.234C149.752 690.641 153.04 692.5 156.967 694.811L157.549 694.746L157.441 693.776C157.223 691.835 153.771 690.256 147.084 689.04ZM101.537 696.499L101.711 698.052L104.655 710.3C105.386 723.845 105.55 731.164 105.149 732.257L104.33 733.724L104.591 736.053L107.059 745.8C107.58 750.459 108.488 752.715 109.782 752.57L110.17 752.527C119.86 750.132 124.647 748.416 124.531 747.381C130.855 744.183 135.288 741.656 137.832 739.799C143.525 739.161 149.934 734.382 157.059 725.46C158.766 720.815 159.409 716.615 158.989 712.863L158.75 710.728C158.605 709.434 156.409 706.207 152.163 701.049C144.723 694.283 138.027 691.233 132.074 691.9L125.431 692.251C115.195 694.445 107.231 695.862 101.537 696.499ZM88.1878 698.387L87.6707 699.035L88.1489 703.305L90.315 713.872L90.5091 713.85L89.9781 698.58L89.5465 698.235L88.1878 698.387ZM150.907 695.097L150.584 695.723L151.663 696.585L152.245 696.52L152.202 696.131L151.295 695.054L150.907 695.097ZM100.425 707.63L100.318 708.428L100.405 709.204C100.636 710.095 100.881 710.527 101.14 710.498L101.657 709.85L101.483 708.297L100.813 707.586L100.425 707.63ZM95.5138 714.665L95.6116 727.822L96.2591 728.339L97.0355 728.252L97.5308 727.411L96.3787 717.123C96.1903 715.441 95.902 714.622 95.5138 714.665ZM164.293 711.089L163.754 711.543L163.906 712.902L164.532 713.225L164.726 713.203L165.243 712.555L165.156 711.779L164.487 711.068L164.293 711.089ZM91.683 724.331L91.1007 724.397L91.1659 724.979L91.7917 725.302L92.1799 725.258L92.1364 724.87L91.683 724.331ZM166.869 721.807L166.287 721.872L166.396 722.843L165.363 725.906L165.45 726.683L166.767 727.911C167.672 727.809 168.038 726.393 167.863 723.661C167.589 722.381 167.257 721.763 166.869 721.807ZM163.298 732.033C163.5 732.666 164.018 733.198 164.852 733.628L165.24 733.585C166.533 732.261 167.114 731.016 166.984 729.852L166.574 729.701C164.763 729.904 163.67 730.682 163.298 732.033ZM158.274 734.561L158.34 735.144L159.116 735.057C160.108 734.553 160.567 733.977 160.495 733.33L159.913 733.395C159.007 733.497 158.461 733.885 158.274 734.561ZM146.503 740.007L146.568 740.589L148.315 740.394C148.875 739.545 150.197 738.48 152.281 737.198L152.453 736.982L152.388 736.4C150.576 736.603 148.615 737.805 146.503 740.007ZM98.127 743.263L97.6317 744.105L97.6534 744.299L98.3009 744.816L98.818 744.168L98.7963 743.974L98.127 743.263ZM138.139 746.054L138.205 746.636C141.741 745.454 143.997 743.956 144.973 742.144L144.951 741.95L144.563 741.993C140.941 743.578 138.8 744.931 138.139 746.054ZM153.686 740.971L153.147 741.425L153.191 741.813L154.161 741.704L154.074 740.928L153.686 740.971ZM150.346 744.49L150.562 744.662L150.756 744.641L152.028 743.712L151.962 743.13L151.768 743.151C150.891 743.512 150.417 743.958 150.346 744.49ZM129.774 750.331L129.796 750.526L131.155 750.373C132.937 749.912 133.814 749.551 133.785 749.293L133.354 748.948L132.965 748.991C130.795 749.497 129.731 749.943 129.774 750.331ZM122.767 752.689L122.788 752.883L123.371 752.817C125.441 752.586 126.44 752.146 126.368 751.499L126.324 751.111L125.742 751.176C125.095 751.249 124.103 751.753 122.767 752.689ZM135.773 753.001L136.183 753.151L136.377 753.13C139.525 751.991 141.063 751.098 140.99 750.451L140.753 750.085L140.559 750.106C137.899 750.928 136.304 751.893 135.773 753.001ZM141.153 764.19L141.175 764.384C141.291 765.419 141.91 766.267 143.032 766.928L143.809 766.841L143.765 766.453C142.671 764.872 141.8 764.118 141.153 764.19ZM104.318 793.275L103.628 794.139L103.846 796.08L104.622 795.993L104.793 794.008L104.512 793.254L104.318 793.275ZM109.849 804.055L109.871 804.249L110.734 804.938L111.122 804.895C111.64 804.837 111.926 803.888 111.982 802.047L111.895 801.271L111.377 800.15L110.794 800.215C110.277 800.273 109.962 801.553 109.849 804.055ZM105.791 801.168L105.403 801.212L105.385 804.555L105.406 804.749L106.183 804.662L106.894 803.993L106.807 803.216C106.662 801.922 106.323 801.24 105.791 801.168ZM125.335 803.696L125.162 803.912L125.249 804.688L125.444 804.667L125.939 803.825L125.917 803.631L125.335 803.696ZM170.863 799.58L170.195 800.637L171.08 801.521L171.274 801.499L171.942 800.442L171.833 799.471L170.863 799.58ZM189.799 798.442L189.908 799.412L191.094 799.476L192.064 799.367L192.582 798.72L192.516 798.137L191.869 797.62L191.092 797.707C190.201 797.938 189.77 798.183 189.799 798.442ZM124.757 809.067L125.167 809.218L125.943 809.131L126.655 808.462L126.611 808.074L126.158 807.535C125.123 807.651 124.656 808.162 124.757 809.067ZM175.221 801.647L173.086 801.886L173.108 802.08L173.971 802.769L177.271 802.4L177.249 802.206C177.062 801.703 176.386 801.516 175.221 801.647ZM190.774 803.639L191.465 804.544L193.988 804.262C195.153 804.131 195.828 803.728 196.015 803.052C195.957 802.534 195.41 802.334 194.375 802.45L192.24 802.689C191.234 803.063 190.745 803.38 190.774 803.639ZM164.959 806.53L164.614 806.962C164.672 807.479 165.025 807.702 165.672 807.63L166.599 807.133L166.318 806.378L164.959 806.53ZM216.347 696.809L240.35 693.531C242.421 693.299 246.857 693.719 253.659 694.792C261.962 701.068 267.049 706.132 268.922 709.984C272.102 712.642 275.026 718.276 277.693 726.886C279.996 728.725 281.545 733.203 282.342 740.32L283.08 745.15L284.456 764.453C284.89 768.335 287.821 772.855 293.246 778.012C298.124 781.79 301.21 783.606 302.504 783.461L302.547 783.849C302.721 785.402 300.732 788.114 296.58 791.986C293.592 795.727 291.646 797.648 290.74 797.75L290.546 797.771C288.446 797.744 282.778 794.514 273.541 788.08C258.939 795.743 251.58 799.646 251.465 799.79C246.592 801.908 241.05 803.315 234.839 804.01L233.869 804.119C226.751 803.737 220.494 801.686 215.099 797.967C214.106 797.292 211.867 794.267 208.383 788.892C205.735 786.306 204.179 782.943 203.715 778.802L203.085 773.173C202.679 769.55 203.273 766.077 204.866 762.754C205.954 757.26 208.3 751.888 211.905 746.636C213.7 743.946 215.596 742.161 217.594 741.282C223.917 736.905 230.378 734.347 236.978 733.608L245.69 732.436L246.855 732.306C251.772 731.755 255.346 732.075 257.575 733.267L258.74 733.136C259.387 733.064 259.682 732.769 259.624 732.251C257.519 726.329 254.538 720.767 250.68 715.565C247.297 711.096 241.723 709.296 233.959 710.166L225.871 709.892C219.172 712.084 215.902 713.891 216.062 715.315C213.736 719.113 212.604 723.629 212.666 728.863C212.479 729.539 210.186 730.123 205.787 730.616L204.666 731.135C204.148 731.193 203.624 732.365 203.094 734.652C199.413 734.54 197.515 733.966 197.399 732.931C197.57 732.126 197.502 727.417 197.192 718.804C198.596 712.62 202.897 706.569 210.096 700.653C213.487 698.177 215.571 696.896 216.347 696.809ZM238.456 697.674L238.133 698.299L238.802 699.011L239.967 698.88L240.118 698.47L239.427 697.565L238.456 697.674ZM253.381 697.574L252.993 697.618L253.037 698.006C254.188 698.925 255.152 699.341 255.928 699.254L256.122 699.233L256.079 698.844C254.928 697.925 254.028 697.502 253.381 697.574ZM222.434 702.023L222.5 702.605C222.672 702.979 223.341 703.101 224.506 702.97C225.67 702.84 227.244 702.27 229.228 701.262L229.141 700.486L228.364 700.573C225.518 700.891 223.541 701.375 222.434 702.023ZM205.661 710.191L205.705 710.579L205.899 710.557C207.063 710.427 208.672 709.002 210.726 706.282L210.661 705.7L210.467 705.722C209.173 705.867 207.571 707.356 205.661 710.191ZM232.489 705.81L231.605 706.695L232.296 707.601L234.819 707.318L235.336 706.67L234.041 705.636L232.489 705.81ZM205.717 724.728L205.178 725.181L205.504 728.093L205.698 728.071C206.201 727.884 206.409 727.402 206.322 726.625L206.149 725.072L205.717 724.728ZM277.914 732.365L277.72 732.386L277.763 732.775C278.138 733.781 278.455 734.269 278.714 734.24L278.799 733.248C278.468 732.63 278.173 732.336 277.914 732.365ZM274.21 739.658L273.672 740.111L273.737 740.694C274.472 742.577 275.098 743.489 275.616 743.431L276.004 743.388C275.816 741.706 275.282 740.455 274.405 739.636L274.21 739.658ZM217.47 747.192L215.443 748.402L215.552 749.372L215.94 749.329C216.846 749.227 217.435 748.637 217.707 747.558L217.664 747.17L217.47 747.192ZM217.4 765.871C219.175 773.533 220.71 777.292 222.004 777.147L224.228 779.453L224.249 779.647L222.481 779.648L222.546 780.231C225.381 783.32 230.776 785.86 238.729 787.852C239.693 788.268 241.03 788.511 242.741 788.582C245.071 788.321 253.572 783.504 268.245 774.13C269.207 773.367 269.645 772.597 269.558 771.821L269.449 770.851C267.691 765.676 266.025 759.573 264.451 752.543L264.041 752.392C263.882 750.969 262.328 749.964 259.38 749.377C249.5 747.732 242.813 747.105 239.319 747.496C229.731 750.798 223.372 754.851 220.242 759.656C218.173 762.246 217.226 764.318 217.4 765.871ZM274.411 746.711L273.785 746.388L273.85 746.97L274.432 746.905L274.411 746.711ZM275.6 750.312L274.436 750.442L274.523 751.219L275.17 751.736L275.687 751.088L275.6 750.312ZM269.932 755.86L269.415 756.507L270.085 757.219L270.839 756.938L270.774 756.355L270.127 755.838L269.932 755.86ZM276.985 755.66L276.403 755.725L276.425 755.919C277.234 760.807 278.027 763.208 278.804 763.121L279.148 762.689L279.105 762.301C278.8 759.584 278.094 757.37 276.985 755.66ZM270.111 762.719L269.939 762.934L270.069 764.099L270.738 764.81L270.932 764.788L271.622 763.925L271.491 762.76L270.887 762.632L270.111 762.719ZM288.653 779.116L288.071 779.181L288.201 780.346C288.907 781.97 289.583 782.746 290.23 782.674L290.813 782.608L290.748 782.026C289.998 780.014 289.3 779.044 288.653 779.116ZM217.29 787.698L216.945 788.13L216.967 788.324L217.398 788.669L218.369 788.56L218.325 788.172L217.678 787.655L217.29 787.698ZM282.984 782.896L282.466 783.543C282.956 784.405 283.539 784.93 284.215 785.116L284.409 785.094L285.098 784.231L285.055 783.843L283.954 782.787L282.984 782.896ZM255.144 788.765L255.187 789.153L255.963 789.066C257.775 788.863 260.082 787.819 262.884 785.933L262.863 785.739L262.086 785.826C257.744 786.836 255.43 787.816 255.144 788.765ZM287.623 785.717L287.322 786.537L287.366 786.925L288.229 787.615L289.005 787.528L289.544 787.074L289.501 786.686L288.4 785.63L287.623 785.717ZM239.855 792.639L239.338 793.287C239.669 793.905 240.223 794.17 240.999 794.083C242.394 793.665 243.069 793.262 243.026 792.874L243.004 792.68L242.378 792.357L239.855 792.639ZM219.002 797.726L218.507 798.568C219.155 799.674 222.557 800.8 228.712 801.945C230.754 802.633 233.393 802.796 236.628 802.434L236.606 802.24C236.563 801.852 234.025 801.416 228.991 800.931C226.058 800.473 222.922 799.383 219.585 797.661L219.002 797.726ZM332.934 632.259C335.781 631.941 338.197 632.456 340.183 633.806C339.094 638.121 338.79 644.771 339.273 653.758L339.526 671.811C339.627 672.716 342.266 672.879 347.442 672.3C362.711 670.59 370.425 670.446 370.585 671.87C371.232 671.797 372.052 672.099 373.044 672.774C371.939 674.601 371.429 675.902 371.516 676.679L371.582 677.261L372.599 681.078L371.032 689.901C371.133 690.807 372.249 691.992 374.378 693.457L374.422 693.845C371.432 695.228 368.967 696.028 367.026 696.245C364.941 696.348 363.869 696.14 363.811 695.623L363.768 695.235L365.493 694.845L366.852 694.693L367.541 693.829L367.498 693.441L366.7 693.334L353.717 694.985L343.019 695.986C342.372 696.059 342.067 699.761 342.102 707.095L341.908 707.116L338.842 704.315L338.499 706.516L338.63 707.68C339.165 711.289 339.835 713.179 340.641 713.351C341.158 713.293 341.481 712.078 341.608 709.705L341.456 708.346L342.038 708.281L342.297 708.842L343.026 727.627C347.578 754.239 350.437 767.48 351.601 767.349C352.712 771.418 354.562 773.307 357.15 773.017C358.674 773.763 360.472 774.021 362.542 773.789L366.036 773.397L377.617 771.511C377.876 771.482 378.713 774.86 380.128 781.646C380.618 783.687 380.332 785.226 379.269 786.262C378.35 787.414 376.596 788.134 374.008 788.424L359.106 790.486C350.954 791.399 343.842 789.903 337.771 785.997C334.003 785.108 331.756 781.429 331.032 774.959C330.382 771.495 328.769 761.193 326.195 744.056L325.568 717.397L324.867 705.88L324.693 704.328C323.179 698.994 321.322 696.451 319.122 696.697L313.299 697.349L306.506 698.11C304.565 698.328 302.674 698.998 300.835 700.121C299.526 700.137 297.713 698.571 295.395 695.424L297.343 677.714C297.285 677.197 305.077 675.996 320.72 674.113C320.532 672.431 321.198 670.195 322.72 667.404C320.977 647.16 320.558 636.987 321.464 636.885L321.399 636.303C321.37 636.044 321.032 635.951 320.385 636.023L320.319 635.441C320.276 635.053 324.481 633.992 332.934 632.259ZM326.145 638.326L325.951 638.348L326.082 639.513L326.664 639.447L326.577 638.671L326.145 638.326ZM334.535 637.78L333.846 638.643L333.889 639.031L334.972 643.43L335.36 643.387C336.739 641.66 337.363 640.214 337.232 639.05L337.145 638.273L336.476 637.562L334.535 637.78ZM328.352 645.744L327.704 645.227C327.591 646.55 327.65 648.246 327.881 650.317L327.968 651.093L328.357 651.05L328.569 647.685L328.352 645.744ZM329.847 653.831L329.459 653.874L330.835 673.177L330.857 673.371L331.504 673.888L331.892 673.845C332.798 673.743 333.07 672.075 332.707 668.84L332.207 664.376L330.754 654.908C330.408 654.161 330.106 653.802 329.847 653.831ZM298.768 679.913C298.87 680.819 299.503 681.206 300.667 681.076L303.579 680.75C308.884 680.156 313.772 679.346 318.243 678.321L318.2 677.933C318.127 677.286 314.921 677.318 308.58 678.028L300.428 678.941C299.263 679.071 298.71 679.395 298.768 679.913ZM359.24 672.354L356.825 673.607L354.496 673.868L351.197 674.238L351.262 674.82C354.195 675.278 356.698 675.39 358.768 675.159L363.232 674.659C363.491 674.63 363.599 674.421 363.555 674.033C363.137 672.638 362.346 672.006 361.181 672.137L359.24 672.354ZM364.892 673.687L364.353 674.14L364.397 674.528L365.001 674.657C366.295 674.512 366.978 674.174 367.049 673.641L367.027 673.447L364.892 673.687ZM302.287 683.253L301.942 683.685L302.072 684.849C302.217 686.143 306.625 686.305 315.294 685.334C319.694 684.841 321.858 684.271 321.785 683.624C321.611 682.071 315.823 681.868 304.422 683.014L302.287 683.253ZM343.825 680.37L343.308 681.017L343.33 681.211C343.403 681.858 345.775 681.986 350.448 681.593L353.726 681.03L358.277 681.306L359.054 681.219C359.959 681.118 360.369 680.679 360.282 679.902L360.088 679.924L345.184 680.217L343.825 680.37ZM365.266 682.292L364.577 683.155L364.599 683.35L365.44 683.845L366.411 683.736C367.575 683.606 368.244 683.138 368.415 682.332L367.79 682.009L365.266 682.292ZM304.794 689.851L304.083 690.52C304.141 691.038 304.494 691.26 305.141 691.188L310.015 690.838L315.234 690.057L315.406 689.842L315.363 689.453C313.752 689.11 310.811 689.177 306.541 689.655L304.794 689.851ZM320.347 691.843L304.366 693.043L304.409 693.432C304.511 694.337 309.479 694.24 319.313 693.138L320.822 692.576L320.801 692.382L320.347 691.843ZM348.169 689.317L347.198 689.426L347.263 690.008C347.422 690.252 349.759 690.646 354.274 691.188L354.662 691.145L354.619 690.756C352.389 689.565 350.239 689.085 348.169 689.317ZM358.285 690.149C361.909 690.922 365.08 691.157 367.797 690.853L368.487 689.989L368.356 688.825L367.709 688.308L363.439 688.786C359.945 689.177 358.227 689.632 358.285 690.149ZM332.088 700.158L332.262 701.711L332.909 702.228C333.412 702.041 333.62 701.559 333.533 700.783L333.446 700.006L332.906 698.691L332.712 698.713C332.209 698.9 332.001 699.382 332.088 700.158ZM339.661 702.848L338.603 702.18L338.669 702.762L339.532 703.452L339.726 703.43L339.661 702.848ZM333.493 703.932L333.105 703.975L333.019 704.967L333.128 705.938L333.453 707.081L334.229 706.994L334.033 705.247L333.925 704.276L333.493 703.932ZM335.381 717.281L334.799 717.346L334.973 718.899L335.642 719.61L336.03 719.567L335.943 718.79L335.381 717.281ZM328.825 742.975L330.016 748.345L330.583 755.16L330.994 757.079L331.577 757.014C332.353 756.927 332.401 753.843 331.72 747.761L331.22 743.296C330.553 737.344 329.961 734.397 329.443 734.455C328.537 734.556 328.331 737.396 328.825 742.975ZM343.159 756.896L342.771 756.939L342.729 758.32L342.903 759.873C343.004 760.778 343.321 761.267 343.853 761.338L344.241 761.295C344.744 761.108 344.952 760.626 344.866 759.849C344.504 757.793 343.935 756.809 343.159 756.896ZM345.647 765.068L345.109 767.29C345.443 770.266 346.3 772.07 347.681 772.702L347.982 771.882L347.786 770.135C347.295 766.914 346.581 765.226 345.647 765.068ZM338.229 767.275L337.647 767.34L337.973 770.251L338.491 771.373L338.685 771.351L339.03 770.919L338.661 767.619L338.229 767.275ZM345.227 778.873L345.249 779.067L345.379 780.231C345.567 780.734 346.078 781.201 346.912 781.632L348.271 781.48L348.227 781.091C348.068 779.668 347.068 778.928 345.227 778.873ZM367.207 780.342L367.983 780.255C372.684 778.942 374.984 777.833 374.882 776.927L374.451 776.582C369.549 778.441 367.135 779.695 367.207 780.342ZM340.505 780.581L340.117 780.624L340.204 781.4C340.954 784.592 342.559 786.05 345.018 785.775L346.959 785.557L347.282 784.932L347.26 784.737C347.231 784.479 346.016 784.156 343.614 783.77L340.505 780.581ZM430.726 680.66C436.161 680.052 443.021 681.642 451.307 685.431C458.457 689.609 462.133 692.603 462.336 694.415C468.729 704.705 472.049 710.95 472.295 713.15L472.663 714.681C471.23 719.427 470.607 722.641 470.795 724.323L469.653 724.648L453.154 726.496C451.601 726.67 449.747 727.074 447.591 727.708C428.783 728.243 415.627 728.93 408.122 729.77L404.046 730.227C402.754 732.73 402.166 734.499 402.282 735.534C403.347 736.856 404.053 739.07 404.401 742.176C404.952 747.093 406.054 749.917 407.709 750.649L408.011 751.598L408.033 751.792L406.803 751.34L406.868 751.923L408.833 753.668C409.021 755.35 410.425 757.355 413.044 759.682C418.155 766.709 423.335 770.845 428.584 772.092C433.014 773.037 437.946 773.205 443.381 772.596C444.287 772.495 446.069 771.444 448.727 769.443C450.998 768.664 455.444 763.908 462.066 755.174L462 754.592C461.971 754.333 461.037 754.176 459.196 754.12L458.699 753.193C461.038 747.166 464.176 743.015 468.114 740.74C469.409 741.774 472.006 743.317 475.904 745.37C479.244 749.451 483.641 754.199 489.095 759.615L489.182 760.392C485.65 766.29 482.978 769.341 481.166 769.544L480.39 769.631C480.071 766.784 478.143 765.362 474.606 765.365C473.959 765.438 471.351 767.892 466.783 772.727C464.068 775.39 459.203 778.162 452.188 781.044C443.966 783.668 438.107 785.176 434.614 785.567L423.115 782.924C416.904 783.62 410.834 780.893 404.904 774.744C402.443 772.661 400.32 770.082 398.535 767.006C398.419 765.971 396.394 760.76 392.46 751.374C391.134 747.723 390.275 744.151 389.884 740.657L389.862 740.463C387.935 723.253 391.423 707.598 400.325 693.499C401.257 690.119 403.965 687.392 408.449 685.317C411.454 684.063 415.126 682.931 419.468 681.921C420.575 681.273 424.327 680.853 430.726 680.66ZM413.325 686.736L413.347 686.93L413.735 686.887C415.806 686.655 419.608 685.509 425.142 683.448C426.292 683.188 426.838 682.799 426.78 682.281L426.133 681.764L425.939 681.786C422.186 682.206 418.096 683.713 413.67 686.305L413.325 686.736ZM405.931 690.906L405.953 691.1L406.578 691.423L406.772 691.401C409.288 690.464 410.509 689.672 410.437 689.025L410.307 687.861L409.443 687.171L409.055 687.215C406.813 688.252 405.771 689.482 405.931 690.906ZM435.605 685.617L429.782 686.269L429.825 686.657C429.883 687.175 432.579 687.266 437.914 686.931L438.108 686.909L438.021 686.132C437.992 685.874 437.186 685.702 435.605 685.617ZM422.15 690.072L422.171 690.266C422.229 690.783 424.955 691.133 430.347 691.316L430.713 691.078L430.626 690.302C429.432 688.994 427.605 688.478 425.147 688.753L424.564 688.819C422.897 689.136 422.092 689.554 422.15 690.072ZM434.12 689.91L434.142 690.104C441.996 693.549 446.182 695.242 446.699 695.184L446.893 695.162L448.747 694.168L449.956 694.426L450.106 694.016L450.084 693.822C449.523 693.492 448.38 693.227 446.654 693.027L442.577 691.715C441.295 689.631 439.102 688.763 435.996 689.111L435.414 689.176C434.522 689.407 434.091 689.652 434.12 689.91ZM411.653 698.126C412.831 696.946 415.296 695.556 419.047 693.957L419.004 693.569L418.766 693.202L416.825 693.42C413.189 694.875 411.464 696.444 411.653 698.126ZM402.8 712.089L402.866 712.671C403.025 714.094 414.981 714.393 438.735 713.567L440.741 713.932L443.243 713.455C448.607 714.558 452.195 715.008 454.007 714.805C454.05 715.193 454.475 715.473 455.28 715.645C455.926 714.393 456.191 713.25 456.075 712.215L455.662 708.527C455.474 706.845 451.818 703.454 444.696 698.356C441.387 695.713 437.834 694.408 434.038 694.44L427.308 694.014C416.814 697.417 410.059 700.859 407.043 704.342C405.924 707.219 404.509 709.801 402.8 712.089ZM403.631 700.204L403.675 700.592L404.063 700.548C405.701 699.972 406.492 699.425 406.434 698.907L406.412 698.713L405.442 698.822C404.795 698.894 404.191 699.355 403.631 700.204ZM450.325 697.726C450.7 698.732 451.34 699.184 452.246 699.083L452.634 699.039L452.957 698.413L452.827 697.249L451.942 696.365C450.777 696.496 450.238 696.949 450.325 697.726ZM400.356 704.305L400.033 704.93L400.055 705.124L400.443 705.081L401.154 704.412L401.133 704.218L400.356 704.305ZM455.46 699.705L454.684 699.792C456.585 703.903 457.881 706.116 458.572 706.432L459.348 706.345L459.887 705.892C458.388 701.867 457.056 699.92 455.892 700.05L455.46 699.705ZM402.668 709.156C403.43 708.939 403.76 708.378 403.659 707.472L403.637 707.278C402.89 707.624 402.567 708.25 402.668 709.156ZM463.038 707.701L462.499 708.154L462.651 709.513L463.32 710.224C463.823 710.037 464.032 709.555 463.945 708.778L463.858 708.002L463.62 707.636L463.038 707.701ZM401.425 717.353L401.511 718.129L401.943 718.474L402.331 718.43C403.194 717.941 403.89 717.142 404.421 716.034L404.356 715.452L403.386 715.561C402.609 715.648 401.956 716.245 401.425 717.353ZM393.336 717.079C392.417 718.231 391.801 720.92 391.488 725.148L391.876 725.104C392.653 725.017 393.564 722.622 394.609 717.919C394.278 717.301 393.854 717.021 393.336 717.079ZM413.395 717.191L413.46 717.774C416.107 719.18 420.666 719.521 427.136 718.797L428.883 718.601L431.384 718.125L431.297 717.348C425.861 716.778 419.894 716.725 413.395 717.191ZM449.48 718.26L448.898 718.325L448.963 718.907L449.546 718.842L449.48 718.26ZM412.193 724.008L412.237 724.396C414.897 724.753 421.828 724.632 433.028 724.033L433.05 724.227L433.072 724.421L429.061 725.46C429.105 725.848 430.808 725.854 434.173 725.477C439.608 724.868 442.296 724.305 442.238 723.788C442.093 722.494 432.078 722.567 412.193 724.008ZM392.741 727.562L391.771 727.671L391.901 728.836C391.988 729.612 392.226 729.978 392.614 729.935C393.261 729.862 393.577 729.172 393.561 727.864L392.741 727.562ZM408.507 726.19L407.558 726.492L407.688 727.657L408.659 727.548L408.572 726.772L408.529 726.384L408.507 726.19ZM402.47 728.438L402.491 728.632L402.685 728.61L405.942 727.853L405.898 727.464L405.229 726.753L404.647 726.819C403.482 726.949 402.756 727.489 402.47 728.438ZM449.679 723.544C449.737 724.061 450.931 724.19 453.26 723.929L454.985 723.539L454.941 723.151C454.883 722.633 453.625 722.512 451.167 722.788C450.16 723.162 449.665 723.414 449.679 723.544ZM392.597 735.047L392.662 735.629L392.684 735.823C392.598 736.226 392.635 737.139 392.794 738.562L392.881 739.339C393.142 741.668 394.021 743.666 395.518 745.332L395.712 745.311C395.016 739.1 393.978 735.678 392.597 735.047ZM397.982 751.542L397.4 751.607L397.443 751.995L398.069 752.318L398.457 752.275L398.414 751.887L397.982 751.542ZM399.71 754.69L399.538 754.905L399.581 755.294C400.331 757.306 401.223 758.254 402.258 758.138L402.236 757.944L402.193 757.556C402.077 756.521 401.249 755.565 399.71 754.69ZM463.182 749.35L463.635 749.889L464.606 749.78C465.382 749.693 465.806 749.383 465.878 748.851L465.014 748.162L464.82 748.184C463.914 748.285 463.368 748.674 463.182 749.35ZM459.979 761.107L460.389 761.258L460.583 761.236C462.006 761.077 462.818 760.134 463.017 758.409L462.974 758.021C461.551 758.18 460.552 759.209 459.979 761.107ZM473.522 759.198L473.738 759.37L474.32 759.305C475.039 758.7 475.347 757.945 475.246 757.039L474.663 757.104C473.816 757.723 473.435 758.421 473.522 759.198ZM480.098 756.496L479.904 756.517L479.947 756.906C480.51 758.415 481.179 759.126 481.955 759.039L482.149 759.017L482.494 758.586L482.472 758.392C482.054 756.997 481.263 756.365 480.098 756.496ZM469.297 761.833L469.923 762.156C471.791 761.291 472.667 760.341 472.552 759.306L472.508 758.918L472.314 758.94C470.502 759.143 469.497 760.107 469.297 761.833ZM454.635 767.798L455.024 767.755C456.015 767.251 456.525 766.539 456.553 765.618L456.337 765.446C455.13 766.367 454.563 767.151 454.635 767.798ZM466.196 767.486L466.972 767.399C468.136 766.09 468.689 765.176 468.631 764.659L468.437 764.68C466.812 765.386 466.065 766.322 466.196 767.486ZM411.267 775.407L410.685 775.472L410.772 776.249C411.103 776.867 412.283 777.455 414.311 778.014L415.153 778.509C413.483 776.469 412.188 775.435 411.267 775.407ZM424.941 774.662L424.747 774.683L424.769 774.877C424.827 775.395 426.251 775.825 429.041 776.168L429.213 775.952L429.17 775.564C427.386 774.846 425.977 774.546 424.941 774.662ZM436.632 775.514L436.05 775.579L436.115 776.162L436.698 776.096L436.632 775.514ZM457.145 776.165C458.439 776.02 459.365 774.934 459.924 772.906L459.342 772.971C457.761 774.065 457.029 775.13 457.145 776.165ZM443.775 779.628L439.656 779.696L438.879 779.783C437.715 779.913 437.097 780.244 437.025 780.777L437.069 781.165L437.91 781.66L441.404 781.269C445.415 780.82 450.059 779.579 455.334 777.547C454.988 776.799 454.168 776.498 452.874 776.643L451.904 776.752C448.798 777.1 446.089 778.058 443.775 779.628ZM556.567 642.589L564.028 640.771C571.29 641.268 574.994 642.164 575.139 643.458C576.908 644.046 578.649 645.554 580.362 647.982C584.016 650.194 588.674 656.682 594.334 667.447L601.59 677.836C604.862 685.987 607.079 689.996 608.244 689.866C609.797 689.692 611.921 685.261 614.617 676.574C618.002 667.023 623.103 655.25 629.921 641.253C632.278 640.072 633.399 638.963 633.283 637.928C633.856 636.03 634.761 634.749 635.997 634.087L638.542 633.998C640.411 633.134 642.366 632.456 644.407 631.966C653.337 632.145 657.888 633.011 658.062 634.563L658.084 634.758L663.559 680.133L664.584 692.793C665.825 698.026 668.454 711.554 672.47 733.378L672.321 735.557C673.429 736.088 675.083 736.23 677.282 735.984C680.043 736.068 681.54 737.145 681.772 739.215L681.902 740.38C682.859 748.92 682.819 753.249 681.784 753.364L681.396 753.408C679.209 752.605 677.016 752.326 674.817 752.573L663.365 753.855C651.46 755.188 645.37 754.626 645.095 752.167L645.133 747.249L645.046 746.473C644.989 745.955 644.434 745.1 643.383 743.908L643.253 742.743C643.181 742.096 645.236 741.145 649.419 739.891L650.432 738.402L649.719 737.302L649.393 734.391C649.175 732.45 649.467 729.207 650.269 724.663L650.936 723.605C649.915 722.671 648.868 717.417 647.795 707.841L646.469 696.001L646.011 690.156C645.334 688.791 644.865 686.944 644.604 684.615L644.278 681.703C643.959 678.856 643.905 674.866 644.117 669.733C643.943 668.18 644.358 666.037 645.362 663.304L645.426 662.118C644.027 657.82 643.219 654.7 643.002 652.759L642.42 652.824C640.466 655.27 637.516 660.514 633.569 668.556C629.279 679.387 625.275 688.09 621.556 694.664L615.031 706.597C614.385 707.849 613.351 708.554 611.927 708.714L609.489 708.004C608.224 708.408 607.29 708.84 606.686 709.301C605.134 709.475 604.061 708.088 603.469 705.141C601.712 702.324 599.373 699.572 596.452 696.886C594.106 694.659 589.334 687.726 582.134 676.085L579.564 672.442L576.541 668.26L576.713 668.044L577.878 667.914C578.525 667.842 579.136 668.625 579.713 670.263L579.951 670.63L580.533 670.565L580.446 669.788C580.011 665.906 577.808 662.615 573.837 659.916L573.255 659.981L573.364 660.951L571.811 661.125L571.941 662.29L571.965 664.253L572.182 666.193C577.441 694.429 581.215 718.77 583.505 739.215C583.318 739.891 582.902 740.265 582.255 740.338C581.737 740.396 581.399 739.713 581.239 738.29L580.829 738.139L580.441 738.182L580.315 742.324C582.099 743.041 583.063 744.047 583.208 745.341L583.081 747.714C581.01 747.945 579.924 747.608 579.823 746.703L579.241 746.768L578.767 747.804L578.876 748.774C578.934 749.292 581.616 749.843 586.922 750.428L587.699 750.341C588.605 750.239 589.553 749.937 590.545 749.432C595.966 749.874 598.728 750.547 598.829 751.453L598.916 752.229L597.773 752.554C596.868 752.655 595.429 752.096 593.458 750.875L592.488 750.984C589.425 751.72 587.931 752.411 588.003 753.058C588.191 753.561 588.672 753.769 589.449 753.682L592.166 753.378C596.092 753.332 598.112 753.826 598.228 754.861L598.834 756.759L598.964 757.923C599.153 759.605 597.903 760.728 595.214 761.291C593.172 760.603 591.115 760.374 589.045 760.606L589.067 760.8C589.11 761.189 589.779 761.31 591.073 761.165C592.799 761.365 593.683 761.659 593.727 762.047L591.613 762.481C587.731 762.915 579.888 763.073 568.082 762.954L563.382 764.856C560.995 764.6 559.722 763.759 559.562 762.336L559.432 761.171C557.879 761.345 556.663 759.844 555.783 756.667L555.545 756.3L555.436 755.33C556.57 752.582 559.013 750.999 562.766 750.578C565.914 749.44 567.466 748.676 567.422 748.288L567.401 748.094L554.036 658.596L553.49 650.206L552.365 647.187C552.061 644.47 553.462 642.937 556.567 642.589ZM571.674 652.886C573.546 655.559 576.446 658.641 580.375 662.131L589.165 675.69L589.747 675.625C589.501 673.425 586.246 667.173 579.982 656.869C579.88 655.963 578.405 654.491 575.556 652.451L575.038 651.33L573.873 651.461C572.335 651.764 571.602 652.239 571.674 652.886ZM575.201 714.203C575.029 715.008 574.993 715.864 575.095 716.769L576.312 727.639L577.658 737.905L577.896 738.271L578.284 738.228C579.578 738.083 580.318 737.083 580.503 735.228L580.373 734.063C579.855 734.121 579.387 733.453 578.969 732.058L578.772 728.543L578.75 728.349C578.402 725.243 577.818 722.95 576.997 721.47L577.275 718.687C576.827 715.855 576.135 714.36 575.201 714.203ZM620.483 676.31L620.915 676.655C621.878 675.892 622.983 673.475 624.23 669.405C625.264 668.11 626.046 665.729 626.575 662.264L626.531 661.875L625.711 661.574C623.9 661.777 622.157 666.689 620.483 676.31ZM657.75 672.136C658.951 680.518 660.026 684.853 660.975 685.139L661.32 684.708L660.624 678.497C660.074 673.579 659.467 669.913 658.803 667.498L658.221 667.563C657.574 667.636 657.417 669.16 657.75 672.136ZM571.75 690.415C572.777 697.245 573.614 700.623 574.261 700.551L574.649 700.507L574.367 697.984C573.917 693.972 573.332 689.911 572.609 685.799L572.415 685.821C571.897 685.879 571.676 687.41 571.75 690.415ZM565.556 661.433L564.586 661.541L564.522 662.728L565.283 669.521C565.544 671.85 565.998 672.979 566.645 672.906C567.292 672.834 567.427 671.115 567.05 667.751C566.746 665.034 566.248 662.927 565.556 661.433ZM665.494 721.975C664.804 722.838 664.583 724.37 664.829 726.569L665.155 729.481L666.062 730.559L667.227 730.428C667.615 730.385 667.801 729.709 667.786 728.4C666.775 724.059 666.011 721.917 665.494 721.975ZM567.853 722.297L568.069 722.47C569.233 722.339 569.598 720.333 569.163 716.451L568.468 710.24L568.143 709.097C567.496 709.17 567.399 713.57 567.853 722.297ZM557.05 652.166L556.878 652.381L556.9 652.575C558.084 658.47 558.999 661.381 559.646 661.308C560.063 660.345 560.191 659.151 560.031 657.728L559.858 656.175C559.553 653.457 558.617 652.121 557.05 652.166ZM558.562 753.408L557.851 754.077L557.96 755.047C558.061 755.953 558.961 756.966 560.658 758.086L561.047 758.043C561.435 757.999 561.643 757.517 561.671 756.597C561.281 754.282 560.762 753.161 560.115 753.234L558.562 753.408ZM658.741 719.587L657.964 719.673C657.319 722.104 657.098 724.225 657.301 726.037C657.863 727.546 658.403 728.272 658.921 728.214L659.309 728.17L658.784 719.975L658.741 719.587ZM561.642 649.293L561.448 649.315L561.578 650.479C563.02 655.166 564.194 657.458 565.1 657.357L565.682 657.291L565.595 656.515L563.867 653.367C563.65 651.426 562.908 650.068 561.642 649.293ZM569.634 736.445L569.981 739.55L570.801 739.852L571.19 739.808L571.294 735.473L570.947 734.136L570.559 734.179C570.042 734.237 569.733 734.992 569.634 736.445ZM575.262 760.381L574.163 761.094C575.127 761.51 576.256 761.646 577.55 761.501L578.132 761.436L580.03 760.83L579.943 760.054L575.262 760.381ZM637.406 641.397L637.621 641.57C638.01 641.526 638.814 640.519 640.034 638.548L639.904 637.383L639.322 637.448C638.359 638.211 637.72 639.528 637.406 641.397ZM567.016 702.541L566.628 702.585L566.823 704.332L566.845 704.526C567.062 706.467 567.43 707.408 567.947 707.35L568.312 705.344C567.836 703.432 567.404 702.498 567.016 702.541ZM648.863 745.456L648.368 746.298L648.455 747.074L648.887 747.419L651.539 746.532L651.474 745.95C651.286 745.447 650.804 745.239 650.028 745.326L648.863 745.456ZM561.991 678.734L561.215 678.821L561.758 683.673L562.384 683.996L562.578 683.974L562.618 680.825L562.553 680.243L561.991 678.734ZM613.014 693.852L612.432 693.917C611.786 695.169 611.499 696.118 611.572 696.765L611.615 697.153L612.197 697.088C612.844 697.016 613.138 696.131 613.079 694.434L613.014 693.852ZM582.941 760.504L581.582 760.656L581.626 761.044L584.02 761.366L587.126 761.018L587.061 760.436L582.941 760.504ZM566.449 646.593L565.306 646.917L565.372 647.499C565.401 647.758 565.947 647.959 567.011 648.102C567.759 647.756 568.118 647.454 568.089 647.195L568.045 646.807L567.42 646.484L566.449 646.593ZM635.533 645.734L635.921 645.691L636.115 645.669C636.79 644.676 637.091 643.856 637.019 643.209L636.975 642.821L636.781 642.843C635.819 643.606 635.402 644.57 635.533 645.734ZM650.658 750.954L649.343 751.495L649.408 752.077L650.012 752.206L652.147 751.967L652.126 751.773C651.794 751.155 651.305 750.882 650.658 750.954ZM667.444 732.369L665.697 732.565L665.741 732.953L666.842 734.009L667.23 733.965L668.113 733.08L668.07 732.692L667.444 732.369ZM573.222 647.406L573.244 647.6L575.379 647.361L575.552 647.145L575.508 646.757L575.271 646.391C573.977 646.536 573.294 646.874 573.222 647.406ZM650.91 668.972L650.975 669.554L651.429 670.093C651.932 669.905 652.14 669.424 652.053 668.647L651.923 667.483L651.534 667.526C651.031 667.713 650.823 668.195 650.91 668.972ZM574.008 707.065L574.095 707.841L574.572 710.342L575.154 710.277L575.002 708.919C574.857 707.625 574.526 707.007 574.008 707.065ZM580.317 744.092L579.778 744.546L580.426 745.063L581.202 744.976L581.525 744.35L581.093 744.005L580.317 744.092ZM654.245 733.847L653.663 733.913L653.599 735.099L653.643 735.487L654.225 735.422L654.354 734.818L654.245 733.847ZM662.248 735.113L661.559 735.976L662.012 736.515L663.177 736.385L663.112 735.802L662.248 735.113ZM651.519 674.406L651.131 674.45L651.218 675.226L651.736 676.347L652.124 676.304L651.972 674.945L651.519 674.406ZM651.295 665.391L651.683 665.348C652.043 665.045 652.172 664.441 652.07 663.535C651.452 663.867 651.194 664.485 651.295 665.391ZM658.28 710.205L657.697 710.27L657.568 710.874L658.41 711.369L658.733 710.743L658.711 710.549L658.28 710.205ZM660.433 731.189L659.269 731.319L659.356 732.096L659.938 732.031L660.455 731.383L660.433 731.189ZM562.127 760.673L561.351 760.76L561.416 761.342L561.87 761.881L562.214 761.449L562.408 761.428L562.127 760.673ZM556.184 647.939L555.601 648.004L555.667 648.586L556.098 648.931L556.292 648.909L556.184 647.939ZM570.287 744.036L569.899 744.08L570.008 745.05L570.59 744.985L570.525 744.403L570.287 744.036ZM705.103 657.989L710.494 656.992C713.089 664.956 713.495 669.169 711.713 669.63C710.031 669.819 713.193 676.998 721.2 691.169C724.844 697.967 727.688 702.89 729.733 705.936C734.514 714.703 737.487 719.022 738.652 718.891C739.04 718.848 739.774 719.552 740.854 721.003L741.091 721.369L743.226 721.13C744.65 720.971 746.413 715.074 748.517 703.439C758.431 678.483 760.663 666.244 755.214 666.724C754.955 666.753 754.639 666.854 754.265 667.026C754.462 661.764 754.164 657.342 753.37 653.763L754.253 652.877C771.118 651.382 779.602 651.087 779.703 651.992C780.35 651.92 781.043 655.183 781.782 661.783C781.311 665.766 780.364 667.838 778.941 667.997C777.503 668.027 776.727 668.114 776.612 668.258C776.497 668.402 776.842 668.56 777.647 668.731L776.289 668.884C772.199 677.989 770.298 683.836 770.588 686.424C769.746 692.938 768.233 697.563 766.049 700.297C763.342 712.392 761.135 720.762 759.428 725.408C758.638 726.545 758.109 730.011 757.841 735.806L751.017 750.327C748.02 759.835 743.491 769.12 737.431 778.185L728.638 785.655C724.872 787.125 721.889 787.983 719.689 788.229C710.113 789.302 705.217 788.868 705 786.927C703.892 786.396 702.848 784.678 701.868 781.774C699.709 780.051 696.555 773.525 692.403 762.198L692.36 761.81C692.215 760.516 693.437 759.724 696.025 759.434C698.224 759.188 701.976 757.589 707.279 754.636C708.961 754.448 711.957 760.139 716.267 771.711C717.477 774.327 718.341 775.606 718.858 775.548L720.411 775.374C721.403 774.87 722.264 773.201 722.995 770.368C723.771 770.281 725.983 766.627 729.629 759.405C731.106 755.047 732.749 750.998 734.557 747.258L734.879 744.863L734.444 740.981C734.097 739.055 732.412 736.295 729.39 732.703C726.309 728.593 723.775 724.685 721.787 720.977C713.879 705.353 705.261 690.989 695.932 677.883C695.356 677.424 694.745 677.23 694.098 677.303L682.323 679.211L681.676 678.694L680.57 672.332L679.247 664.029L682.567 662.085L701.565 657.992L705.103 657.989ZM760.425 657.099L758.031 656.778L762.713 658.219L765.365 657.332L765.753 657.289L769.096 657.308L769.053 656.919C768.995 656.402 767.657 656.159 765.04 656.19L762.129 656.516C760.964 656.646 760.396 656.841 760.425 657.099ZM773.947 654.995L773.602 655.427L773.624 655.621C773.941 656.11 774.365 656.39 774.897 656.461L778.348 655.682L778.283 655.1C778.11 654.726 777.635 654.582 776.859 654.669L773.947 654.995ZM682.986 672.848L682.62 673.085L682.794 674.638L683.851 675.306L686.374 675.023C689.077 674.589 690.392 674.049 690.32 673.402C690.262 672.884 687.817 672.7 682.986 672.848ZM701.082 672.983L700.544 673.436C700.717 674.989 701.848 676.893 703.935 679.149L704.129 679.127L703.89 676.992C703.643 674.792 702.902 673.434 701.665 672.918L701.082 672.983ZM771.991 662.093L772.034 662.481L772.897 663.171C777.31 661.629 779.481 660.534 779.408 659.887L778.761 659.37L777.984 659.457C774.275 660.265 772.277 661.144 771.991 662.093ZM769.165 661.427L768.626 661.881L768.734 662.851C769.21 663.584 770.029 663.885 771.194 663.755L771.366 663.539L771.258 662.568L769.747 661.362L769.165 661.427ZM769.127 668.113L768.157 668.222L768.265 669.193L769.236 669.084L769.127 668.113ZM768.981 673.829L768.399 673.894C764.454 684.294 762.244 689.717 761.77 690.163L761.922 691.522C761.98 692.039 762.664 692.88 763.973 694.043L763.049 698.078L763.438 698.034C764.945 695.114 766.779 688.095 768.941 676.978L768.981 673.829ZM746.773 731.739L746.882 732.709L747.852 732.601C749.923 732.369 751.88 725.861 753.723 713.076C753.694 712.817 754.262 712.033 755.425 710.724C755.309 709.688 755.618 708.933 756.351 708.458L756.329 708.264L755.573 706.776C756.075 705.41 756.068 705.345 755.551 706.582C755.35 707.129 754.941 708.157 754.324 709.668C752.775 713.379 751.383 716.745 750.149 719.765C749.834 721.635 748.709 725.626 746.773 731.739ZM722.528 704.778L722.334 704.8L722.377 705.188C725.935 712.389 727.973 715.96 728.491 715.902L728.685 715.88L728.641 715.492C725.342 708.262 723.304 704.691 722.528 704.778ZM758.43 718.248L758.624 718.227C760.694 717.995 761.826 712.889 762.018 702.91L761.824 702.932C761.307 702.99 760.841 704.68 760.427 708.002C759.108 712.604 758.442 716.02 758.43 718.248ZM722.427 712.65L721.91 713.298L721.975 713.88L722.601 714.203L723.334 713.728L723.312 713.534L722.427 712.65ZM728.793 716.851L728.276 717.498L728.32 717.886L729.593 718.727C729.981 718.683 730.154 718.467 730.11 718.079C729.793 717.59 729.419 717.174 728.987 716.829L728.793 716.851ZM746.354 745.543L746.397 745.932L747.368 745.823C748.273 745.721 749.723 742.283 751.716 735.509L751.694 735.315C749.882 735.518 748.102 738.927 746.354 745.543ZM738.304 740.352L738.326 740.546L738.52 740.525C739.555 740.409 740.022 739.898 739.921 738.992L739.79 737.827L739.014 737.914C738.396 738.246 738.159 739.058 738.304 740.352ZM745.389 752.727L744.097 755.23L744.357 755.79C745.42 754.754 745.894 753.718 745.778 752.683L745.389 752.727ZM701.57 761.565L701.053 762.212C702.247 763.52 702.974 764.749 703.234 765.899L704.961 767.278L705.716 766.997L705.607 766.026C705.389 764.085 704.367 762.562 702.54 761.456L701.57 761.565ZM728.388 771.139L728.41 771.334C729.704 771.189 730.816 769.426 731.748 766.046L731.36 766.09C729.894 767.04 728.903 768.723 728.388 771.139ZM706.517 770.641L706.129 770.684L706.194 771.267C706.353 772.69 706.987 773.667 708.094 774.198L708.633 773.745L708.59 773.357C708.474 772.322 707.783 771.416 706.517 770.641ZM733.503 774.694L732.017 777.219L732.448 777.563L732.642 777.542C735.933 775.339 737.801 773.295 738.245 771.411C737.669 770.952 737.123 770.751 736.605 770.809L735.829 770.896C734.664 771.026 733.889 772.292 733.503 774.694ZM712.583 777.43L711.419 777.56L711.484 778.142L712.369 779.026L714.116 778.83L714.655 778.377C714.582 777.73 713.892 777.414 712.583 777.43ZM722.313 780.074L726.09 782.206L726.866 782.119C727.369 781.932 727.57 781.385 727.469 780.479L727.36 779.509C727.187 779.135 726.648 778.999 725.742 779.101L723.995 779.296C722.83 779.427 722.27 779.686 722.313 780.074ZM715.715 782.582L715.587 783.186C716.076 784.048 716.968 784.407 718.262 784.262L720.979 783.958L721.302 783.332L721.281 783.138C721.208 782.491 720.388 782.19 718.821 782.234L715.715 782.582Z" fill="black"/>
<path d="M444.055 799.457L451.691 798.645C458.823 800.102 462.374 801.481 462.346 802.783C464.022 803.601 465.547 805.327 466.923 807.961C470.251 810.638 474.006 817.687 478.187 829.109L483.999 840.37C486.159 848.882 487.825 853.151 488.997 853.176C490.559 853.21 493.253 849.101 497.078 840.848C501.701 831.831 508.321 820.839 516.936 807.872C519.43 807.014 520.687 806.064 520.71 805.023C521.53 803.217 522.597 802.068 523.91 801.576L526.445 801.826C528.411 801.217 530.439 800.805 532.527 800.59C541.354 801.953 545.751 803.416 545.717 804.978L545.713 805.173L545.114 850.874L544.449 863.558C544.985 868.909 545.794 882.667 546.877 904.831L546.44 906.971C547.467 907.644 549.088 908.005 551.301 908.052C554.026 908.502 555.366 909.768 555.321 911.851L555.296 913.023C555.11 921.615 554.496 925.899 553.455 925.877L553.064 925.868C551.004 924.782 548.867 924.215 546.654 924.167L535.133 923.917C523.157 923.658 517.196 922.292 517.249 919.819L517.941 914.95L517.957 914.169C517.969 913.648 517.533 912.727 516.65 911.405L516.675 910.234C516.689 909.583 518.853 908.913 523.165 908.225L524.367 906.884L523.806 905.699L523.869 902.77C523.912 900.818 524.632 897.642 526.029 893.244L526.831 892.285C525.943 891.224 525.603 885.877 525.811 876.244L526.069 864.332L526.391 858.479C525.901 857.035 525.682 855.142 525.732 852.799L525.796 849.87C525.858 847.006 526.334 843.044 527.225 837.984C527.259 836.422 527.955 834.353 529.313 831.778L529.533 830.61C528.718 826.165 528.331 822.965 528.374 821.013L527.788 821C525.527 823.165 521.906 827.971 516.927 835.417C511.237 845.583 506.112 853.677 501.554 859.699L493.502 870.661C492.696 871.815 491.577 872.377 490.145 872.346L487.823 871.319C486.515 871.551 485.532 871.856 484.873 872.232C483.31 872.198 482.432 870.681 482.236 867.682C480.869 864.657 478.916 861.619 476.377 858.568C474.348 856.05 470.538 848.544 464.948 836.05L462.884 832.098L460.443 827.552L460.642 827.361L461.814 827.387C462.465 827.401 462.967 828.258 463.321 829.959L463.508 830.354L464.094 830.366L464.111 829.585C464.195 825.68 462.449 822.126 458.871 818.923L458.286 818.91L458.264 819.886L456.702 819.853L456.677 821.024L456.439 822.973L456.397 824.925C457.86 853.609 458.369 878.236 457.924 898.804C457.65 899.449 457.187 899.765 456.536 899.75C456.016 899.739 455.771 899.018 455.802 897.586L455.415 897.382L455.025 897.373L454.35 901.461C456.023 902.409 456.845 903.534 456.817 904.836L456.376 907.171C454.293 907.126 453.261 906.647 453.281 905.736L452.695 905.723L452.088 906.687L452.067 907.663C452.056 908.184 454.641 909.087 459.823 910.371L460.604 910.388C461.515 910.408 462.496 910.233 463.546 909.865C468.86 911.022 471.508 912.056 471.488 912.968L471.471 913.749L470.295 913.919C469.384 913.899 468.033 913.153 466.241 911.682L465.265 911.661C462.132 911.984 460.559 912.471 460.545 913.122C460.664 913.645 461.114 913.915 461.895 913.932L464.628 913.991C468.525 914.466 470.463 915.225 470.44 916.266L470.788 918.227L470.763 919.399C470.726 921.091 469.338 922.038 466.599 922.239C464.666 921.286 462.658 920.786 460.575 920.741L460.571 920.936C460.563 921.327 461.209 921.536 462.511 921.564C464.195 921.992 465.033 922.4 465.024 922.791L462.872 922.94C458.967 922.855 451.171 921.97 439.486 920.285L434.575 921.546C432.243 920.975 431.093 919.973 431.124 918.541L431.149 917.369C429.587 917.336 428.581 915.686 428.13 912.42L427.944 912.025L427.965 911.049C429.453 908.476 432.085 907.231 435.86 907.313C439.131 906.602 440.771 906.051 440.78 905.661L440.784 905.466L439.421 814.985L439.993 806.597L439.279 803.456C439.339 800.722 440.93 799.389 444.055 799.457ZM457.661 811.668C459.161 814.566 461.626 818.005 465.056 821.987L471.969 836.593L472.554 836.606C472.602 834.393 470.206 827.764 465.366 816.719C465.386 815.808 464.119 814.152 461.566 811.753L461.201 810.573L460.029 810.547C458.464 810.644 457.675 811.017 457.661 811.668ZM453.015 872.91C452.737 873.686 452.589 874.529 452.569 875.44L452.332 886.375L452.304 896.728L452.491 897.123L452.881 897.132C454.183 897.16 455.049 896.267 455.479 894.453L455.504 893.281C454.983 893.27 454.608 892.546 454.379 891.108L454.65 887.597L454.655 887.402C454.722 884.278 454.447 881.928 453.83 880.351L454.475 877.63C454.407 874.764 453.92 873.19 453.015 872.91ZM502.927 841.365L503.309 841.764C504.365 841.136 505.781 838.887 507.558 835.019C508.755 833.873 509.846 831.617 510.83 828.252L510.839 827.861L510.066 827.454C508.243 827.415 505.864 832.052 502.927 841.365ZM540.419 842.177C540.496 850.644 540.986 855.083 541.889 855.493L542.288 855.111L542.423 848.862C542.53 843.915 542.415 840.201 542.078 837.719L541.492 837.707C540.841 837.693 540.483 839.183 540.419 842.177ZM452.753 848.875C452.864 855.78 453.245 859.24 453.896 859.254L454.287 859.263L454.342 856.724C454.429 852.689 454.387 848.585 454.217 844.414L454.022 844.41C453.501 844.398 453.078 845.887 452.753 848.875ZM450.462 819.327L449.486 819.306L449.265 820.473L449.117 827.307C449.067 829.651 449.367 830.829 450.018 830.843C450.669 830.857 451.031 829.172 451.104 825.787C451.163 823.054 450.949 820.9 450.462 819.327ZM541.476 892.602C540.678 893.366 540.255 894.855 540.208 897.068L540.144 899.997L540.9 901.185L542.072 901.211C542.462 901.219 542.737 900.574 542.895 899.275C542.47 894.838 541.997 892.613 541.476 892.602ZM444.657 879.958L444.848 880.157C446.02 880.182 446.648 878.242 446.732 874.337L446.867 868.089L446.697 866.913C446.047 866.899 445.366 871.247 444.657 879.958ZM443.262 809.012L443.062 809.203L443.058 809.399C443.449 815.398 443.97 818.405 444.621 818.419C445.162 817.519 445.447 816.353 445.478 814.921L445.512 813.359C445.571 810.625 444.821 809.176 443.262 809.012ZM431.318 909.559L430.524 910.128L430.503 911.104C430.484 912.015 431.241 913.139 432.775 914.474L433.165 914.483C433.556 914.491 433.826 914.041 433.976 913.133C433.896 910.787 433.531 909.607 432.88 909.593L431.318 909.559ZM535.1 889.338L534.319 889.321C533.357 891.645 532.856 893.718 532.817 895.54C533.174 897.111 533.613 897.902 534.133 897.913L534.524 897.922L535.092 889.729L535.1 889.338ZM448.194 806.775L447.999 806.771L447.974 807.942C448.781 812.778 449.64 815.206 450.551 815.226L451.137 815.239L451.154 814.458L449.859 811.109C449.901 809.156 449.346 807.711 448.194 806.775ZM444.544 894.216L444.476 897.341L445.249 897.748L445.639 897.756L446.318 893.473L446.152 892.102L445.762 892.094C445.241 892.082 444.835 892.79 444.544 894.216ZM446.945 918.688L445.76 919.248C446.66 919.789 447.761 920.073 449.063 920.101L449.649 920.114L451.61 919.766L451.627 918.985L446.945 918.688ZM524.336 809.008L524.527 809.208C524.917 809.216 525.848 808.325 527.319 806.533L527.345 805.362L526.759 805.349C525.703 805.977 524.896 807.197 524.336 809.008ZM446.451 860.265L446.06 860.257L446.022 862.014L446.018 862.209C445.976 864.162 446.215 865.144 446.735 865.155L447.364 863.215C447.145 861.257 446.841 860.274 446.451 860.265ZM521.875 913.667L521.273 914.436L521.256 915.217L521.638 915.616L524.384 915.089L524.397 914.503C524.278 913.98 523.828 913.709 523.047 913.693L521.875 913.667ZM444.631 836.001L443.85 835.985L443.745 840.866L444.322 841.269L444.517 841.274L444.975 838.158L444.988 837.572L444.631 836.001ZM493.195 857.76L492.61 857.748C491.803 858.902 491.393 859.805 491.379 860.456L491.37 860.846L491.956 860.859C492.607 860.873 493.016 860.036 493.183 858.346L493.195 857.76ZM454.539 919.829L453.172 919.8L453.164 920.19L455.494 920.827L458.618 920.894L458.631 920.308L454.539 919.829ZM453.318 804.737L452.142 804.907L452.129 805.492C452.123 805.753 452.638 806.024 453.674 806.307C454.461 806.064 454.857 805.812 454.863 805.552L454.871 805.161L454.294 804.758L453.318 804.737ZM521.904 813.058L522.294 813.067L522.489 813.071C523.29 812.177 523.698 811.404 523.712 810.753L523.72 810.363L523.525 810.358C522.469 810.987 521.929 811.887 521.904 813.058ZM522.925 919.355L521.549 919.716L521.537 920.302L522.118 920.51L524.266 920.556L524.27 920.361C524.024 919.705 523.575 919.369 522.925 919.355ZM542.029 903.163L540.272 903.125L540.263 903.516L541.214 904.709L541.605 904.717L542.598 903.957L542.607 903.566L542.029 903.163ZM459.923 806.442L459.919 806.638L462.067 806.684L462.266 806.493L462.274 806.103L462.088 805.708C460.786 805.68 460.064 805.925 459.923 806.442ZM534.059 838.132L534.047 838.718L534.424 839.312C534.948 839.193 535.218 838.743 535.235 837.962L535.26 836.79L534.87 836.782C534.346 836.901 534.076 837.351 534.059 838.132ZM452.78 865.677L452.763 866.458L452.904 869.001L453.49 869.013L453.519 867.646C453.547 866.345 453.301 865.688 452.78 865.677ZM454.117 903.215L453.523 903.592L454.096 904.191L454.877 904.208L455.28 903.63L454.898 903.231L454.117 903.215ZM528.751 902.876L528.165 902.863L527.945 904.031L527.936 904.421L528.522 904.434L528.73 903.852L528.751 902.876ZM536.515 905.193L535.717 905.957L536.095 906.551L537.267 906.577L537.28 905.991L536.515 905.193ZM533.941 843.599L533.55 843.591L533.534 844.372L533.899 845.552L534.289 845.56L534.319 844.194L533.941 843.599ZM534.916 834.634L535.307 834.642C535.703 834.391 535.911 833.809 535.931 832.898C535.274 833.144 534.936 833.723 534.916 834.634ZM535.889 879.978L535.303 879.965L535.095 880.547L535.863 881.15L536.267 880.572L536.271 880.377L535.889 879.978ZM535.237 901.063L534.066 901.037L534.049 901.818L534.635 901.831L535.233 901.258L535.237 901.063ZM433.887 917.233L433.106 917.216L433.093 917.802L433.471 918.396L433.87 918.014L434.065 918.019L433.887 917.233ZM442.964 804.708L442.378 804.695L442.366 805.281L442.748 805.68L442.943 805.684L442.964 804.708ZM444.184 901.827L443.793 901.819L443.772 902.795L444.358 902.808L444.371 902.222L444.184 901.827ZM612.518 832.601L617.951 834.282L619.709 834.32C627.05 838.125 633.855 842.636 640.124 847.851C646.639 853.722 649.866 858.09 649.804 860.954L649.413 860.945C648.411 859.1 647.389 858.166 646.348 858.144L646.153 858.14C645.762 858.131 645.561 858.387 645.55 858.908C646.04 860.351 647.158 862.85 648.904 866.404L649.295 866.413C649.555 866.418 649.895 865.775 650.313 864.481L650.509 864.485C650.896 864.624 651.311 866.521 651.753 870.178L653.426 874.121L652.98 876.651L653.414 883.693C652.432 886.928 651.493 891.206 650.597 896.526C650.022 898.988 643.769 908.1 631.837 923.861C626.523 928.695 621.392 931.059 616.446 930.952C611.878 931.374 606.73 931.523 601.003 931.399L597.292 931.319C595.079 931.271 589.327 929.258 580.036 925.28C568.418 914.479 562.67 906.28 562.791 900.682C561.175 897.131 559.813 893.845 558.706 890.826C558.743 889.134 560.621 883.574 564.342 874.147C564.472 868.159 565.994 864.024 568.908 861.743C575.311 848.727 583.241 840.368 592.698 836.666C600.964 833.849 607.571 832.494 612.518 832.601ZM576.043 893.155L576.017 894.326C577.764 897.88 579.7 901.699 581.826 905.783C581.798 907.084 584.231 908.96 589.128 911.411C591.412 914.195 595.726 916.437 602.071 918.138L605.577 918.604C611.33 917.557 615.653 916.413 618.545 915.173L625.702 909.467C633.161 901.814 636.818 895.316 636.673 889.973L636.711 888.216C635.975 886.116 635.657 882.723 635.759 878.037C635.838 874.392 636.16 871.533 636.726 869.462C636.746 868.551 634.256 866.218 629.258 862.463C625.726 857.177 622.02 853.906 618.14 852.65L615.797 852.599C600.552 852.92 592.91 853.992 592.87 855.815C589.412 859.126 586.997 862.395 585.625 865.621C581.364 869.957 579.217 872.841 579.186 874.273C577.899 879.585 576.851 885.879 576.043 893.155ZM583.119 846.031L582.512 846.995L582.495 847.776C583.276 847.793 587.305 845.145 594.584 839.832L596.158 839.28L597.326 839.501C606.067 838.778 610.447 838.027 610.464 837.246L610.468 837.05L607.356 836.397C598.504 836.205 590.425 839.417 583.119 846.031ZM598.261 850.461L598.256 850.656L598.634 851.251L601.368 851.31L615.3 848.486L615.308 848.095L611.615 847.234C602.74 848.084 598.289 849.159 598.261 850.461ZM566.552 898.419L565.758 898.988L565.728 900.355C565.893 904.787 567.076 907.287 569.278 907.855L569.477 907.664L569.482 907.469C568.7 901.461 567.723 898.445 566.552 898.419ZM598.014 843.814L597.993 844.79C608.172 843.838 613.266 843.167 613.274 842.776L611.725 842.157L611.53 842.153C605.281 842.017 600.776 842.571 598.014 843.814ZM614.772 836.753C615.384 838.589 616.796 839.531 619.009 839.579L620.957 839.817L621.352 839.63L621.373 838.654C621.404 837.222 620.056 836.346 617.327 836.027C615.632 836.12 614.781 836.362 614.772 836.753ZM577.45 918.386L576.084 918.357L576.067 919.138C577.722 920.867 580.763 921.779 585.189 921.875L587.337 921.921C586.706 920.996 583.41 919.818 577.45 918.386ZM609.513 926.308L609.505 926.699C609.496 927.089 610.466 927.436 612.413 927.739C614.626 927.786 615.739 927.485 615.753 926.834L615.762 926.444C615.643 925.92 615.198 925.389 614.429 924.852L612.671 924.814C611.239 924.783 610.187 925.281 609.513 926.308ZM647.417 890.01C647.462 893.919 647.743 896.008 648.258 896.28L648.648 896.289C648.679 894.857 649.299 893.307 650.507 891.64L650.52 891.054L648.435 888.079L648.045 888.07C647.784 888.065 647.575 888.711 647.417 890.01ZM635.256 856.146L634.475 856.129C635.219 857.838 637.076 859.311 640.044 860.547L640.826 860.564L641.424 859.991L641.428 859.796C639.266 857.405 637.208 856.188 635.256 856.146ZM631.091 849.999L631.082 850.39C631.439 851.961 633.226 853.627 636.444 855.39L637.03 855.403L637.433 854.825L637.438 854.63C636.806 853.705 634.691 852.161 631.091 849.999ZM618.343 843.277L617.948 843.464C620.379 845.47 622.311 846.488 623.743 846.519L623.946 846.133L623.951 845.938C621.904 844.2 620.035 843.313 618.343 843.277ZM590.674 921.212L590.661 921.798C590.644 922.579 592.458 923.009 596.103 923.088L596.303 922.897L596.311 922.506C594.636 921.688 592.756 921.257 590.674 921.212ZM628.348 841.344L627.749 841.917C629.142 843.771 630.554 844.713 631.986 844.744C632.017 843.312 630.934 842.182 628.738 841.353L628.348 841.344ZM580.268 860.426L580.238 861.793L580.824 861.805C582.55 860.28 583.423 859.061 583.442 858.15L583.447 857.955L582.47 857.934C581.678 858.438 580.944 859.268 580.268 860.426ZM624.592 852.398C625.345 853.717 626.242 854.388 627.284 854.41L627.487 854.024L627.496 853.633C627.521 852.462 627.013 851.865 625.972 851.842C625.058 851.953 624.598 852.138 624.592 852.398ZM642.422 904.163L642.418 904.359C643.459 904.381 644.393 903.36 645.219 901.294L645.227 900.903L644.642 900.89C643.86 900.874 643.121 901.965 642.422 904.163ZM584.588 850.361C585.759 850.386 586.883 849.629 587.958 848.089L587.971 847.504C585.744 848.107 584.616 849.059 584.588 850.361ZM645.622 900.716L646.598 900.737L647.367 901.34C647.542 899.26 647.236 898.342 646.45 898.585L646.059 898.577L645.893 897.206L645.622 900.716ZM620.028 927.903L620.223 927.908C622.583 927.177 623.769 926.552 623.78 926.031L623.398 925.632C621.562 926.243 620.438 927.001 620.028 927.903ZM573.498 911.463L572.708 911.837L572.7 912.227L574.228 913.823L575.009 913.84C575.029 912.929 574.525 912.137 573.498 911.463ZM586.514 923.857L586.51 924.052L589.048 924.107L589.447 923.725L589.069 923.131L588.679 923.122C587.377 923.094 586.655 923.339 586.514 923.857ZM650.841 876.214L650.242 876.787L650.226 877.568L650.794 878.362L651.592 877.598L651.609 876.817L651.036 876.218L650.841 876.214ZM568.378 868.178C569.029 868.192 569.625 867.749 570.165 866.849L570.174 866.459C569.002 866.434 568.404 867.007 568.378 868.178ZM561.869 889.136L561.465 889.713C561.57 890.888 561.753 891.478 562.013 891.483L562.408 891.297L562.429 890.32L562.064 889.14L561.869 889.136ZM614.981 845.158L614.977 845.353L616.963 843.833L616.577 843.629C615.258 844.382 614.726 844.892 614.981 845.158ZM572.427 861.624L572.623 861.628C573.146 861.509 573.418 860.994 573.437 860.083L573.047 860.074C572.651 860.326 572.444 860.843 572.427 861.624ZM573.092 885.081L572.294 885.845L572.285 886.236L572.871 886.248L573.274 885.671L573.287 885.085L573.092 885.081ZM585.251 855.845L584.47 855.828L584.453 856.609L584.843 856.618L585.242 856.236L585.251 855.845ZM674.905 829.458L688.086 834.237C688.174 836.192 688.91 838.292 690.294 840.536L690.638 842.692C689.286 850.998 688.586 868.305 688.538 894.612C688.456 898.387 689.965 900.894 693.063 902.134L694.363 905.287C694.346 906.068 698.626 906.877 707.204 907.714L707.985 907.731C710.719 907.79 714.167 904.935 718.329 899.164C721.521 896.107 723.657 893.679 724.738 891.879L725.714 891.9L725.74 890.728L725.37 889.744C726.177 888.589 726.801 886.844 727.242 884.509L727.437 884.514L727.475 882.756L731.793 845.732L731.869 842.217L731.521 840.256L731.525 840.06C732.979 839.05 733.73 837.438 733.778 835.225C733.809 833.793 734.282 833.022 735.196 832.912L739.636 835.352L743.932 835.445C749.139 835.558 752.825 836.744 754.991 839.005L754.974 839.786C753.542 839.755 752.82 840 752.809 840.521L754.664 845.054L755.25 845.067C755.553 843.12 755.834 842.149 756.095 842.155C756.601 842.817 756.903 843.931 756.999 845.496L754.327 869.662L754.709 870.061L754.705 870.257C753.735 872.971 752.653 880.827 751.46 893.825L751.337 899.487C751.154 907.949 751.453 912.188 752.234 912.205L753.016 912.222C755.359 912.273 759.145 911.834 764.375 910.905C764.893 911.046 766.047 911.853 767.839 913.324C767.065 925.029 766.157 930.87 765.115 930.847L763.006 929.044L757.139 929.307L735.473 928.448C734.301 928.422 733.187 925.728 732.131 920.366C731.364 919.698 730.991 918.909 731.01 917.997L731.439 916.248L730.853 916.236C729.812 916.213 725.933 917.887 719.218 921.259C718.808 922.161 714.211 923.95 705.427 926.626C703.452 927.625 700.826 928.61 697.549 929.581C695.622 928.367 692.523 927.128 688.252 925.863C680.226 917.615 675.367 910.412 673.677 904.254C670.397 899.364 668.927 889.043 669.268 873.292L671.91 850.492L671.923 849.906C671.928 849.646 667.521 848.704 658.7 847.08C657.944 845.892 657.624 842.629 657.739 837.292C657.815 833.777 658.439 832.032 659.611 832.058C659.642 830.626 664.74 829.759 674.905 829.458ZM671.535 831.729L670.745 832.103L670.737 832.494L672.104 832.523L672.112 832.133L671.535 831.729ZM676.383 833.397L675.398 833.767L675.394 833.962C675.391 834.092 676.354 834.699 678.285 835.783C678.248 837.475 678.36 838.324 678.62 838.33L679.792 838.355C682.916 838.423 684.815 837.943 685.488 836.915L685.497 836.525C685.516 835.614 683.579 834.855 679.685 834.25C679.691 833.99 678.915 833.713 677.359 833.418L676.383 833.397ZM662.986 838.577L660.448 838.522L660.435 839.108L660.821 839.312L661.407 839.325L662.973 839.163L662.986 838.577ZM662.944 840.53L661.382 840.496L661.373 840.887C661.487 841.671 662.194 842.077 663.496 842.105L663.7 841.719L663.708 841.328L662.944 840.53ZM735.684 837.415L735.294 837.407C735.266 838.709 736.293 839.382 738.376 839.427L739.548 839.453L740.142 839.075L740.146 838.88C740.16 838.229 738.673 837.741 735.684 837.415ZM667.97 842.983C667.953 843.764 670.012 844.916 674.147 846.438L676.099 846.48C676.62 846.491 676.89 846.041 676.91 845.13C675.509 843.667 673.771 842.718 671.697 842.282L670.135 842.249C668.833 842.22 668.112 842.465 667.97 842.983ZM665.444 842.342L664.459 842.712L664.447 843.298L664.638 843.497L664.634 843.692C665.811 843.457 666.404 843.145 666.412 842.754L666.421 842.364L665.444 842.342ZM682.581 844.862L682.501 848.572L683.078 848.975C683.868 848.602 684.275 847.829 684.301 846.658L684.347 844.51C684.364 843.729 684.18 843.204 683.795 842.935L683.405 842.926C682.881 843.045 682.607 843.691 682.581 844.862ZM661.119 843.616L660.321 844.38L660.703 844.779L662.265 844.813L662.859 844.435L662.095 843.637L661.119 843.616ZM737.307 843.702L736.708 844.275L736.7 844.666C736.688 845.186 737.138 845.457 738.05 845.476L738.245 845.481C739.156 845.5 739.683 845.251 739.824 844.733L739.832 844.343C739.711 843.949 739.064 843.74 737.892 843.715L737.307 843.702ZM673.799 853.463L673.766 855.025L676.716 854.112L676.804 850.012L676.427 849.418C675.776 849.403 674.9 850.752 673.799 853.463ZM739.576 865.241L739.559 866.022L739.754 866.026C741.056 866.054 741.739 864.571 741.804 861.577C741.702 860.272 741.521 859.617 741.26 859.612C740.87 859.603 740.308 861.479 739.576 865.241ZM747.255 871.463L746.67 871.45L746.262 872.223C746.508 872.879 746.762 873.21 747.022 873.216L747.217 873.22L747.255 871.463ZM676.841 875.409L676.259 875.201L675.461 875.965L675.453 876.356L676.226 876.763L676.824 876.19L676.841 875.409ZM736.44 883.732L737.396 884.729C738.052 884.483 738.471 883.19 738.652 880.849L738.465 880.454L738.074 880.446C737.016 881.205 736.471 882.3 736.44 883.732ZM680.603 882.133L680.573 883.5C680.536 885.192 681.354 886.512 683.027 887.46L683.613 887.473C683.717 882.656 683.379 880.239 682.598 880.222L681.816 880.205C681.027 880.579 680.622 881.222 680.603 882.133ZM736.003 885.871L735.405 886.444L735.367 888.202L735.936 888.995C736.725 888.622 737.324 888.049 737.731 887.276L737.748 886.495L737.175 885.897L736.003 885.871ZM673.862 886.676L673.264 887.249L673.247 888.03C673.137 893.107 675.699 901.107 680.932 912.03C681.96 912.703 682.669 913.044 683.059 913.053L683.08 912.076L677.76 896.137C676.197 890.112 674.963 886.96 674.057 886.68L673.862 886.676ZM740.525 893.588L739.727 894.352L739.723 894.547L740.491 895.15L741.09 894.577L740.916 893.596L740.525 893.588ZM718.839 902.691L719.026 903.086L719.221 903.09C722.435 898.992 724.049 896.618 724.064 895.967L724.072 895.576L723.486 895.564C722.417 896.843 720.867 899.219 718.839 902.691ZM684.034 895.101L684.03 895.296C684.403 896.085 684.915 896.487 685.566 896.501L685.571 896.306C685.588 895.525 685.075 895.123 684.034 895.101ZM740.067 896.704L739.676 896.695L739.651 897.867C739.606 899.95 739.874 902.626 740.454 905.894L741.04 905.907C741.603 903.965 741.904 902.083 741.944 900.261L741.973 898.894C742.004 897.462 741.369 896.732 740.067 896.704ZM729.48 898.428L728.72 897.435C727.917 898.46 727.509 899.232 727.498 899.753L728.462 900.36L728.657 900.364L729.451 899.795L729.48 898.428ZM736.077 900.525L735.687 900.516L735.657 901.883L736.048 901.892L736.646 901.318L736.659 900.733L736.077 900.525ZM689.481 905.182L689.286 905.178L689.273 905.763L689.651 906.358L689.846 906.362L689.859 905.776L689.481 905.182ZM748.252 906.649L746.236 909.536L746.223 910.121L748.176 910.164L748.97 909.595L748.991 908.618C749.016 907.447 748.77 906.79 748.252 906.649ZM730.021 909.575L730.016 909.771L730.407 909.779L731.799 908.637L731.816 907.856C730.644 907.831 730.046 908.404 730.021 909.575ZM735.887 909.312L735.288 909.885L735.238 912.228C735.041 921.34 735.398 925.907 736.309 925.926L736.895 925.939C737.809 925.828 738.273 925.448 738.287 924.797C737.285 922.952 736.802 918.188 736.838 910.504L735.887 909.312ZM688.025 909.253L687.44 909.24L687.423 910.021C687.542 910.545 687.992 910.815 688.773 910.832L688.79 910.051L688.025 909.253ZM692.878 910.725L692.292 910.713L692.288 910.908C692.257 912.34 694.49 914.472 698.987 917.304C704.239 915.334 706.871 914.089 706.882 913.568L706.886 913.373C703.501 913.3 698.832 912.417 692.878 910.725ZM702.094 918.153L702.086 918.544L704.429 918.594C709.531 917.533 712.954 915.848 714.697 913.542L714.714 912.761L713.737 912.74C712.956 912.723 709.075 914.527 702.094 918.153ZM759.786 915.299L753.716 915.949L753.699 916.73L754.867 916.951L755.648 916.968C758.515 916.899 759.956 916.475 759.973 915.694L759.982 915.303L759.786 915.299ZM759.715 918.618L758.934 918.602L758.908 919.773L759.689 919.79L760.284 919.412L760.292 919.022C760.298 918.761 760.105 918.627 759.715 918.618ZM743.83 921.4L743.236 921.778L743.224 922.364C743.47 923.021 744.244 923.363 745.546 923.391L747.498 923.433L748.092 923.056L748.101 922.665C748.115 922.014 747.277 921.605 745.588 921.438L743.83 921.4ZM698.291 922.369L696.729 922.335L688.935 921.385L688.545 921.376L687.747 922.14L687.742 922.336C687.717 923.507 691.334 924.888 698.593 926.478C700.806 926.526 705.202 924.993 711.781 921.879L711.981 921.688L711.993 921.102L710.627 921.073C706.699 922.03 702.587 922.462 698.291 922.369ZM818.751 772.4C821.615 772.462 823.941 773.294 825.73 774.896C824.078 779.028 822.894 785.579 822.179 794.55L820.033 812.477C820.013 813.388 822.607 813.9 827.814 814.012C843.175 814.345 850.84 815.227 850.809 816.659C851.46 816.673 852.232 817.081 853.127 817.881C851.788 819.545 851.111 820.768 851.094 821.549L851.081 822.135L851.582 826.053L848.858 834.59C848.838 835.501 849.786 836.824 851.703 838.558L851.694 838.949C848.547 839.923 845.998 840.389 844.045 840.346C841.965 840.171 840.93 839.823 840.942 839.302L840.95 838.912L842.712 838.755L844.079 838.784L844.877 838.02L844.885 837.63L844.108 837.417L831.021 837.33L820.286 836.902C819.635 836.888 818.84 840.517 817.901 847.79L817.706 847.786L815.04 844.603L814.407 846.738L814.382 847.91C814.433 851.557 814.847 853.52 815.622 853.797C816.143 853.808 816.624 852.647 817.065 850.312L817.095 848.945L817.681 848.958L817.863 849.548L816.091 868.264C817.07 895.244 818.145 908.747 819.317 908.773C819.877 912.952 821.459 915.071 824.063 915.127C825.475 916.069 827.223 916.563 829.306 916.608L832.82 916.684L844.549 916.352C844.81 916.357 845.19 919.817 845.692 926.73C845.907 928.819 845.419 930.306 844.228 931.192C843.164 932.211 841.33 932.692 838.727 932.636L823.683 932.701C815.482 932.523 808.631 930.096 803.132 925.419C799.516 924.038 797.778 920.093 797.918 913.584C797.734 910.064 797.504 899.64 797.228 882.312L800.145 855.807L800.981 844.298L801.014 842.736C800.221 837.249 798.718 834.482 796.505 834.434L790.647 834.307L783.813 834.159C781.86 834.117 779.898 834.53 777.925 835.399C776.627 835.241 775.037 833.448 773.158 830.021L777.439 812.727C777.451 812.206 785.333 812.051 801.088 812.262C801.124 810.57 802.082 808.441 803.961 805.877C804.921 785.581 805.857 775.443 806.768 775.462L806.781 774.876C806.786 774.616 806.464 774.479 805.813 774.465L805.825 773.879C805.834 773.488 810.142 772.996 818.751 772.4ZM811.217 777.512L811.022 777.508L810.996 778.679L811.582 778.692L811.599 777.911L811.217 777.512ZM819.605 778.084L818.807 778.848L818.798 779.239L819.287 783.743L819.678 783.751C821.274 782.223 822.084 780.873 822.11 779.701L822.126 778.92L821.558 778.127L819.605 778.084ZM812.419 785.157L811.846 784.559C811.557 785.855 811.39 787.544 811.345 789.627L811.329 790.408L811.719 790.417L812.377 787.11L812.419 785.157ZM812.827 793.371L812.437 793.362L811.237 812.677L811.233 812.872L811.806 813.471L812.197 813.479C813.108 813.499 813.599 811.882 813.669 808.627L813.766 804.136L813.583 794.559C813.34 793.773 813.088 793.377 812.827 793.371ZM778.56 815.096C778.54 816.007 779.116 816.475 780.288 816.501L783.217 816.564C788.554 816.679 793.507 816.526 798.074 816.104L798.083 815.713C798.097 815.063 794.914 814.668 788.536 814.53L780.335 814.353C779.163 814.327 778.571 814.575 778.56 815.096ZM839.5 815.633L836.941 816.554L834.598 816.504L831.278 816.432L831.265 817.018C834.112 817.861 836.577 818.305 838.66 818.35L843.151 818.447C843.412 818.453 843.546 818.26 843.554 817.87C843.325 816.432 842.625 815.7 841.453 815.675L839.5 815.633ZM844.926 817.704L844.331 818.082L844.323 818.472L844.904 818.68C846.206 818.708 846.928 818.463 847.069 817.946L847.073 817.75L844.926 817.704ZM781.604 818.873L781.205 819.255L781.18 820.427C781.152 821.729 785.499 822.474 794.22 822.663C798.647 822.759 800.867 822.481 800.881 821.83C800.914 820.268 795.205 819.298 783.752 818.92L781.604 818.873ZM823.158 821.531L822.56 822.104L822.555 822.299C822.541 822.95 824.876 823.391 829.56 823.623L832.883 823.499L837.358 824.378L838.139 824.395C839.05 824.414 839.514 824.034 839.531 823.253L839.336 823.248L824.525 821.56L823.158 821.531ZM844.154 826.283L843.356 827.047L843.352 827.242L844.12 827.845L845.096 827.866C846.268 827.892 846.992 827.516 847.27 826.741L846.692 826.338L844.154 826.283ZM783.214 825.746L782.42 826.315C782.409 826.835 782.729 827.103 783.379 827.117L788.257 827.418L793.533 827.336L793.733 827.145L793.741 826.755C792.19 826.2 789.267 825.877 784.971 825.784L783.214 825.746ZM798.364 829.785L782.365 828.853L782.357 829.244C782.337 830.155 787.274 830.717 797.167 830.932L798.738 830.575L798.742 830.38L798.364 829.785ZM826.275 830.975L825.298 830.954L825.286 831.54C825.41 831.803 827.674 832.503 832.078 833.641L832.468 833.649L832.477 833.258C830.425 831.781 828.358 831.02 826.275 830.975ZM836.191 833.144C839.681 834.391 842.792 835.045 845.526 835.104L846.324 834.34L846.349 833.168L845.776 832.569L841.48 832.477C837.965 832.4 836.202 832.623 836.191 833.144ZM808.897 839.586L808.863 841.148L809.436 841.746C809.96 841.627 810.23 841.178 810.247 840.396L810.264 839.615L809.903 838.24L809.708 838.236C809.184 838.355 808.914 838.805 808.897 839.586ZM816.046 843.257L815.086 842.455L815.074 843.041L815.838 843.839L816.033 843.843L816.046 843.257ZM809.789 843.512L809.398 843.504L809.182 844.476L809.161 845.452L809.331 846.628L810.112 846.645L810.15 844.888L810.171 843.911L809.789 843.512ZM809.888 856.994L809.302 856.981L809.268 858.544L809.837 859.337L810.228 859.346L810.244 858.565L809.888 856.994ZM799.978 881.59L800.446 887.07L800.103 893.9L800.256 895.857L800.841 895.87C801.622 895.887 802.079 892.836 802.212 886.718L802.309 882.227C802.438 876.239 802.243 873.239 801.722 873.228C800.811 873.208 800.23 875.995 799.978 881.59ZM812.337 897.291L811.946 897.282L811.721 898.645L811.688 900.207C811.668 901.118 811.917 901.645 812.435 901.786L812.825 901.795C813.349 901.676 813.619 901.226 813.636 900.445C813.551 898.359 813.118 897.308 812.337 897.291ZM813.717 905.721L812.89 907.852C812.825 910.846 813.435 912.748 814.72 913.557L815.127 912.785L815.165 911.027C815.106 907.77 814.623 906.001 813.717 905.721ZM806.072 906.923L805.486 906.911L805.423 909.84L805.788 911.02L805.984 911.024L806.383 910.642L806.454 907.322L806.072 906.923ZM811.469 919.348L811.465 919.543L811.439 920.714C811.558 921.238 812.002 921.769 812.772 922.306L814.139 922.336L814.148 921.945C814.179 920.513 813.286 919.647 811.469 919.348ZM833.059 923.722L833.84 923.739C838.673 923.062 841.1 922.268 841.12 921.357L840.738 920.958C835.633 922.15 833.073 923.071 833.059 923.722ZM806.562 920.414L806.171 920.405L806.154 921.186C806.474 924.449 807.871 926.107 810.345 926.161L812.297 926.203L812.7 925.626L812.705 925.43C812.71 925.17 811.549 924.689 809.219 923.988L806.562 920.414ZM867.264 787.516L871.173 787.405C887.822 788.417 896.121 790.094 896.07 792.437L896.816 821.171C896.759 823.775 895.185 830.318 892.093 840.8C891.352 844.952 890.968 847.678 890.939 848.98L890.914 850.152L891.5 850.164C900.368 843.584 910.4 840.415 921.595 840.657C924.85 840.727 930.797 842.745 939.437 846.708C941.102 848.047 943.192 850.762 945.708 854.854C946.608 855.394 947.175 856.253 947.41 857.43L947.173 859.379C950.756 862.322 952.467 867.503 952.307 874.923C952.697 874.932 952.885 881.317 952.869 894.08L952.86 894.471C952.81 896.814 951.613 903.951 949.271 915.883L948.41 919.576L952.511 919.665C956.804 919.888 958.939 920.52 958.916 921.561C958.905 922.082 956.812 922.493 952.638 922.793C952.627 923.314 954.111 923.932 957.091 924.648L957.847 925.836L957.839 926.227C955.357 926.564 954.113 926.862 954.107 927.123C956.57 927.697 957.788 928.57 957.763 929.741C957.63 935.86 955.807 938.881 952.292 938.805L950.725 938.966C945.648 938.857 943.125 938.086 943.156 936.654C943.165 936.263 940.503 935.88 935.172 935.504C932.857 934.152 930.987 933.265 929.564 932.843L929.385 932.058C929.509 926.33 930.536 918.017 932.465 907.119C933.254 900.754 934.572 894.01 936.419 886.887L936.176 880.044L936.783 879.08C935.119 877.742 934.314 875.836 934.367 873.363C932.864 870.595 931.609 868.419 930.601 866.834C926.088 864.783 923.375 863.748 922.464 863.728C915.872 861.371 909.358 861.491 902.92 864.087C894.335 869.631 890.012 873.77 889.953 876.504L888.507 889.171L888.614 902.263C887.625 911.879 886.544 916.674 885.373 916.649L885.156 917.621L885.933 917.833L886.714 917.85L890.063 916.555C893.176 917.143 894.716 918.219 894.682 919.781L893.29 920.923L893.273 921.704C893.395 922.097 894.231 922.571 895.782 923.126L896.151 924.11C895.224 930.863 894.174 934.226 893.002 934.201L892.417 934.188C890.75 932.98 883.805 931.918 871.582 931.002C862.877 930.033 858.544 928.636 858.584 926.814L858.652 923.69C858.533 923.166 858.944 922.198 859.887 920.786L859.912 919.614C858.398 917.368 857.645 916.049 857.653 915.658C858.315 915.152 861.447 914.894 867.047 914.885C867.958 914.905 868.664 912.38 869.165 907.312C870.087 906.811 870.912 904.81 871.639 901.309C872.442 900.285 872.857 899.187 872.882 898.015L872.886 897.82C872.931 895.737 872.326 893.64 871.069 891.529L873.123 886.885C874.034 886.904 874.863 872.661 875.611 844.155L878.965 815.51L879.151 806.918C879.213 804.054 878.333 802.603 876.51 802.563L870.071 802.229L865.945 803.311C865.294 803.297 864.876 801.53 864.692 798.01L864.734 796.057C864.858 790.329 865.701 787.482 867.264 787.516ZM863.865 926.537L863.856 926.928L864.247 926.936C865.939 926.973 869.11 927.888 873.76 929.682C880.917 929.967 886.57 930.545 890.718 931.416L891.304 931.429L891.907 930.661L891.911 930.465C891.939 929.164 885.77 928.379 873.403 928.111C871.348 926.765 868.759 926.057 865.635 925.99C864.46 926.095 863.87 926.277 863.865 926.537ZM945.085 910.713L945.671 910.725C946.582 910.745 947.925 905.89 949.698 896.161C949.729 894.729 949.293 893.808 948.39 893.397L947.609 893.38C946.828 893.364 945.987 899.141 945.085 910.713ZM940.106 869.971L941.345 866.872C941.844 867.924 942.152 868.712 942.271 869.236C942.772 870.158 943.283 870.625 943.804 870.637L943.837 869.074C943.894 866.471 942.137 863.372 938.568 859.779L937.596 859.562L936.815 859.545L936.798 860.326C938.581 862.188 940.036 864.173 941.163 866.282L939.342 869.173L940.106 869.971ZM883.122 822.047C882.714 822.819 882.468 825.158 882.384 829.064C883.946 829.098 884.702 830.286 884.651 832.629L884.846 832.633C885.254 831.861 885.479 830.498 885.521 828.546L885.576 826.007L885.38 826.003L884.553 828.134L883.772 828.117L883.602 826.941C883.885 825.905 884.156 825.39 884.417 825.396L885.58 825.812C885.337 825.025 884.517 823.77 883.122 822.047ZM871.16 914.388C871.141 915.299 873.275 915.996 877.562 916.48L877.952 916.488L878.547 916.11L878.581 914.548C878.329 914.152 877.812 913.946 877.031 913.929L873.126 913.844C871.824 913.816 871.169 913.997 871.16 914.388ZM932.844 925.686L933.235 925.694L935.183 925.932L941.241 925.868L941.44 925.676L941.445 925.481C940.163 924.542 938.09 924.041 935.226 923.979C934.054 923.954 933.26 924.523 932.844 925.686ZM861.852 920.242L861.839 920.828L863.206 920.858L870.04 921.006C870.063 919.964 868.058 919.335 864.025 919.117C862.723 919.089 861.999 919.464 861.852 920.242ZM918.897 857.009L917.526 857.174L917.505 858.151C920.338 859.645 922.145 860.4 922.926 860.417L923.728 859.457C923.745 858.676 922.135 857.86 918.897 857.009ZM871.5 790.343L871.488 790.928C873.024 792.134 875.225 792.768 878.089 792.83L878.496 792.057C875.785 790.956 873.453 790.385 871.5 790.343ZM886.412 868.613L886.378 870.175L886.964 870.188C888.266 870.216 889.137 869.063 889.579 866.728L889.778 866.537L889.799 865.561L889.604 865.557C888.681 866.058 887.617 867.076 886.412 868.613ZM890.029 791.72L889.227 792.68C889.604 793.339 890.178 793.873 890.951 794.28L891.146 794.284C892.057 794.304 892.65 793.991 892.925 793.346L892.933 792.955L892.177 791.767L890.029 791.72ZM933.715 930.589L931.567 930.542L931.555 931.128C931.668 931.912 932.506 932.321 934.068 932.354L936.02 932.397L936.033 931.811C936.041 931.42 935.269 931.013 933.715 930.589ZM888.591 921.407L888.196 921.594L888.175 922.57L889.325 923.572L890.302 923.593L891.295 922.833L891.299 922.638L889.958 921.437L888.591 921.407ZM875.253 797.457L874.273 797.631L874.264 798.021C874.386 798.415 874.838 798.62 875.619 798.637L877.181 798.671L878.361 798.305L878.374 797.72L877.206 797.499L875.253 797.457ZM937.093 918.94L937.076 919.721L938.638 919.755L939.232 919.377L939.254 918.401L938.68 917.802C937.899 917.786 937.37 918.165 937.093 918.94ZM888.484 872.175L889.057 872.773L890.424 872.803C891.205 872.82 891.665 872.634 891.803 872.246L891.23 871.648L890.449 871.631C889.408 871.608 888.753 871.79 888.484 872.175ZM933.758 847.367L933.745 847.953C934.246 848.875 935.213 849.352 936.645 849.383L936.657 848.797C936.156 847.875 935.19 847.398 933.758 847.367ZM929.922 862.131L929.913 862.522C929.888 863.693 930.526 864.293 931.828 864.321L931.832 864.126C931.73 862.821 931.093 862.157 929.922 862.131ZM885.328 810.373L884.925 810.95L884.895 812.317L885.273 812.912L886.067 812.343L886.092 811.171L885.328 810.373ZM873.759 794.299L873.173 794.286L873.169 794.481L873.347 795.267L875.886 795.322L875.903 794.54L873.759 794.299ZM896.404 858.28L896.989 858.293C898.444 857.282 899.174 856.647 899.18 856.387L898.594 856.374C897.278 856.997 896.548 857.632 896.404 858.28ZM948.226 864.872L947.628 865.445L947.619 865.835L948.774 866.642L949.165 866.65L949.563 866.268L948.617 864.88L948.226 864.872ZM923.502 842.847L923.306 842.843L923.302 843.038C923.294 843.429 924.131 843.838 925.815 844.265L925.819 844.069C925.834 843.419 925.061 843.011 923.502 842.847ZM885.006 816.227L884.603 816.804L884.59 817.39L885.163 817.988L885.948 817.81L885.961 817.224L885.201 816.231L885.006 816.227ZM913.901 853.189L912.534 853.159L912.525 853.55L913.098 854.148L914.465 854.178L914.474 853.787L913.901 853.189ZM904.724 861.977L903.926 862.741L903.913 863.327L904.499 863.339L905.297 862.575L905.31 861.989L904.724 861.977ZM933.189 927.842L932.59 928.415L932.586 928.611L933.159 929.209L933.549 929.218L933.762 928.441L933.189 927.842ZM868.516 792.818L868.321 792.814L868.287 794.376L868.483 794.38L869.081 793.807L869.094 793.221L868.516 792.818ZM949.048 890.091L948.454 890.468L949.027 891.067L949.417 891.075L949.43 890.49L949.048 890.091ZM890.204 919.098L889.422 919.081L889.41 919.667L890.191 919.684L890.204 919.098ZM915.336 859.081L914.937 859.463L915.718 859.48L915.727 859.089L915.336 859.081ZM941.553 866.29L941.35 866.676C941.089 866.671 941.092 866.541 941.358 866.286L941.558 866.095L941.553 866.29Z" fill="black"/>
<defs>
<clipPath id="clip0_6_351">
<rect width="802" height="484" fill="white" transform="translate(107 72)"/>
</clipPath>
</defs>
</svg>
