<svg xmlns="http://www.w3.org/2000/svg" viewBox="0 0 517.2 28.8"><defs><style>.cls-1{fill:#202020;}</style></defs><g id="Calque_2" data-name="Calque 2"><g id="Calque_1-2" data-name="Calque 1"><path class="cls-1" d="M517.1,19.6c.2,0,.1-.3-.7-.2l-.5.4Z"/><path class="cls-1" d="M512,18.9c-.9.2-1.9.8-1.3,1.3s1.1-.4,2-1,1.3.1,1.2.3,1.2.1,1.6-.2a6.8,6.8,0,0,0-3.5-.1C511.7,19.1,512,19,512,18.9Z"/><path class="cls-1" d="M438.8,12.9l.5.3A.5.5,0,0,0,438.8,12.9Z"/><path class="cls-1" d="M393.4,9.2a.6.6,0,0,0,.5-.7C393.6,8.7,393.4,8.9,393.4,9.2Z"/><path class="cls-1" d="M385.7,5.2l.5.3C386,5.1,385.8,5,385.7,5.2Z"/><path class="cls-1" d="M438.8,12.9l-1.2-.9C437.5,12.8,438.2,12.6,438.8,12.9Z"/><path class="cls-1" d="M501.9,20.9l.6-.3h-.6Z"/><path class="cls-1" d="M458.9,12.2h.4l.3-.8Z"/><path class="cls-1" d="M474.3,13.2c-.4-.1-.6,1.5-.7,2.1a1.4,1.4,0,0,1,.8-1A4.9,4.9,0,0,0,474.3,13.2Z"/><path class="cls-1" d="M498.5,17.4h0Z"/><path class="cls-1" d="M447.9,10.9c0-.3,0-.6-.1-.7A1.7,1.7,0,0,0,447.9,10.9Z"/><path class="cls-1" d="M17.9,20.9Z"/><path class="cls-1" d="M.1,19.4H.3Z"/><path class="cls-1" d="M371.6,1Z"/><path class="cls-1" d="M241,5.5c1.5,1.9-2.4,2.5-.2,4.6C240.6,9.2,242.8,6.7,241,5.5Z"/><path class="cls-1" d="M501.5,20.8h0Z"/><path class="cls-1" d="M240.8,10.1h0l.3.2Z"/><path class="cls-1" d="M338.8,2.4a5,5,0,0,0,.3,1.3A4.5,4.5,0,0,0,338.8,2.4Z"/><path class="cls-1" d="M363.1,6.7l-.6-.4Z"/><path class="cls-1" d="M326.1,6.6c-.4-.3-.5-.6-.9-.3s.1.3.1.4S325.7,6.1,326.1,6.6Z"/><path class="cls-1" d="M312.9,6.8a.8.8,0,0,0,.2.5h.4Z"/><path class="cls-1" d="M58,20.9l-.7-.7C57.6,20.8,55.6,21,58,20.9Z"/><path class="cls-1" d="M501.9,20.4a.8.8,0,0,1-.4.4h.4C501.9,20.6,502,20.5,501.9,20.4Z"/><path class="cls-1" d="M325.3,28.6l-2.1-.5A5,5,0,0,0,325.3,28.6Z"/><path class="cls-1" d="M152.4,21.7H152C152.1,21.9,152.3,21.8,152.4,21.7Z"/><path class="cls-1" d="M317,28.2a4.8,4.8,0,0,0-1.1-1.9l-.3.7Z"/><path class="cls-1" d="M57.3,20.2Z"/><path class="cls-1" d="M43.6,21.9c2,0,.9-.9,1.3-1.5,2.4-.2,1.1.7,2,1.2s2.6-1.1,3.7-1,.3.2,0,.4c1.6-.8,4.7,0,6.5-1.1l.2.3a3.1,3.1,0,0,1-.3-1.5c.9,0,1.6-.7,2,0s-.6.3-.8.5l.9-.3c.9,1-1.3.3-1.2,1.1,1.8-.3,3.9-1.2,5.3-1s-3.3.4-1.4,1.3l-2.2-.4c1.7,1.6-1.3-.1.3,1.6s3.2-.5,6-.1c.6-.6-.2-.9.4-1.5,4-1.1,3.3,2.8,6.2,1.3.7-.7,1-2.2,3.1-1.4l-.7,1.3c2.8.2,1.6-1.9,4.5-1-.5.5-2.2.4-1.8.6,1.9,1.1,1.3-.8,2.8-.8l.3,1.3c3-.2,6.2-1.1,9.4-1.4-.2.4-.7.8.1,1.3,4-.7,8.7.2,12.7,1.1l1.5-1.2c.3,0,.7.5.3.8,1.5.5,0-.8.8-1.3s1.1.7.6,1.1c2.7-1,7.7-2.4,10.6-.9l-.6.4c2.3.6,2.5-2.8,4.6-1.5l-.4.2c4.9.7,10.2-.7,13.9,1.6.7-2.2,4.8,1.1,5.1-2,2.8,1.5,2,2.1,5.9,3.2,1.1.2,1.5-2,2.8-2.3V22l1.7-1.8,1,2.1,1.2-.5c-.5-.1-1.1-.7-1-1.2,1.9-.8,4.6,1.2,4.7,2.1l4.4-1.4c-.1.7-.8.9-1.4,1.4,2.3-1.8.4,1.9,2.6.2-.3-.4.1-1,.2-1.4,1.1,1.1,3.6,1.2,5.4.7l-.3,1.3c3.3.4,6.9-.5,10.6-.4-1.3-.6-1-2.9.1-3.1l.4,2c.7-1.2-1.1-.7.3-2.3,1.4.3.9,2.4.2,3l1.6-.7c.1.7-.2,1-.3,1.7.6-1.2,2.9,2.2,3.9,0v.6c3.7.1,5.3-.6,8.4-.6,0-1.9,1.2-1.5,2.1-3,2.2.7,4.7,2.2,7.4,2.1s.5-1.6,1.3-2.8c.2,1.8,2.8,1.7,1.5,2.9a22.6,22.6,0,0,0,8.1-1.7c-.4-.7-.9-1-.7-1.6s1.7.7,1.6,1.6l-.2.2c2.3-1.4,4.9,0,7.4,1.3s5,2.4,6.8.4l-.2.2,3.7-2c1.8.4-1,1.4.3,2.6,4-3.1,6.4.7,9.7-1.4,1.3,2.9,3.6,2.8,6,2.5s5-.9,6.7,1.1l-.2-1.4c.9-1.4,1.1.8,1.8,1.1s-1-1.2-.5-2c7.7-1.6,15.8,2.5,23.7,4.2,2.8.6,1.6-7.7,5.2-4l-1,2.8c2.9-1.6,5.8-1.4,8.8-1.2s5.8.6,8.7-.9c-.4.7-.4,1.6-.9,1.6,1.1,2.3,4.4.3,4.4-1.5.9.3.2,1.7.7,2.6s3.1-2.7,3.7-.4c.1.3-.4.7-.6.8s3.7.5,2.9-2.1c2.1,1.3,4.1-1.1,5.8.6,1.1-3,3.6,1.6,4-2.7-.2,4.5,3.7,3.8,5.1,1.7-.5,1.4,1.1,1.5.6,3.4,1.5,0,2.9-.8,2.7-3.2,2.7,5.6,5.7-4.2,7.2,2.9a61.2,61.2,0,0,1,12.9-4.9c-.2,4.7-4.5.4-4.4,5.3,3.9-1.8,6.2-5.8,10-4.6,1,.6-.5,2-.9,2.8,3.9-1.9,7.5.5,11-2a2.3,2.3,0,0,1-.8,1.3c.7-.2,1.6.7,1.6-1.5l-.7.6c-1-3.1,2.8-6.4,2.9-8.1-1.2,6.1,3.4,1.6,1.5,9.3a3.7,3.7,0,0,0,.9-2.8c.7.4.9,1.2.2,2.8,2.5-1.1,1.6-3.4,3.8-3.3,0,1-.4,1.4-.7,2.6,1.2-2,2.3-4,4.2-3.1-.2.6,0,1.4-.5,1.4,3.2-.3,5.6-5.3,9-3.4-1.1,4.4,1.2,1.5,1.3,5.2l1.9-1.1-.7-1.8c1.7,0,3.2-2.7,4.6-1.4l-1.3,1.5,3.2-.7-1.8-1.4c1.7-1.9-.1-4.7,2.1-3.6-.4.3,1.7.1,2.5,2.2h0c.8-1.1,1.7-2.3,2.9-1.4s-.3,3.9-.1,4.7c.8-3,3.9-.8,5-4a6.6,6.6,0,0,0-.3,3l.7-2.4c.7.8.8,1.1.7,2.6,2.3.4-.7-4.5,2-2.5-.2.2-.1.5-.5.9,2.7,1,5.3-1.5,7.8-.4.7,3.4-2.2.9-1.4,3.8a28.8,28.8,0,0,0,5.6-2.3c1.9-.8,3.8-1.4,5.6-1l-.7-.4c.6-4.5,2.6,2.3,4.4.1a4.4,4.4,0,0,0-.5,2c2.4.7,5-1.2,8.7-2.5l-.5,1.1c1.4,1,3.8.5,5.3,1,.5-1.1,1.4-.9.9-2.4,2.3,3,4.5,2.1,6.8,1.2s4.3-1.8,6.4.4c-.5,0-1.2.8-.8.8l3.6-.9c-.3-1.5-.5-.9-1.2-2.1a3,3,0,0,1,2.4-1.6c-1.6,1,0,2.5.6,3.3s.2-1,.1-1.5c1.8,2.7.4-2.9,3-1.1l-.2.7c1-.3,1.9-1.3,2.9-1.1.4,1.7-1,.8-1.1,2.1,1.4-.1,2.9-3,4.2-1.4a20.4,20.4,0,0,0-2.2.9c1.4,1.9,1.6,1.4,2.6,1.6h-.1l2.5.8-.6-.5c.9-2,1.9-2.1,2.9-2.1A4,4,0,0,0,478,18c-2.4,2.3-.4,1.3-.7,2.9s1.6.9,1.3,1.3c1.2-1.3,1.9.9,3.6-.9.1.4,1.2,0,.9,1.1,1.6-.4-.3-.8-.1-1.4s2.5-.3,4,0a6.8,6.8,0,0,0,4.8-.4c2.9-.8,3.4-2,6.1-2.4.5.2.3.5,0,.7l-.8.4a6.1,6.1,0,0,0,4,0c-.3.3-.1.5.3.8s.8-1,2.3-.6a4.4,4.4,0,0,1-1.2,1.1l4-1.1c.3.4-.9.7-1.3,1,1.5-.3,3.9-.6,4.4-1.1l-1-.2c.6,0,.3.5-.1.6s-1.9-.2-2-.4h1c-.5-.7-1.4-.7-2.5-.5a21,21,0,0,1-3.3.6l.9-1.2-2,1c-.4-.3-.7-1.1.3-1.2-1.4-.7-1.3.4-2.4-.4s-.1-.2,0-.2l-1.3.3c.2-.3-.2-1,.6-.7a5.3,5.3,0,0,0-3-.2c-.8.2-1.4.4-1.8-.2h.2c-1.7.2-1.8.5-1.8.9s.2.9-1.1,1.6a31.8,31.8,0,0,1-1.6-3.2l-.4,1.3c-.3-.1-1-.2-.9-.8s.2.6-.5,1.5c-.8-.7-2-.6-3-.6s-1.8-.2-1.9-1.3c-.7,1.1,1.5.9-.3,1.6-.4-2.6-2,.4-3.5-.9.5-1.4,1.9-.5.4-1.9-1,2.3-2.9-.7-4.2-.4-.1,2-2.8.7-5,1.3.2-.7-4-1.5-6-2.5v-.3c-.5,2.2-2.5,1.7-4,2.1.1-1.4.3-2,1.2-2.6h-1.4a2.2,2.2,0,0,1-1.8,1.4l.4-1.8c-1.8-.1-3.8,1.9-6.2.5-.2,1.8,1.8,5.1-.8,6.2-.1-.9-.1-2.7.6-3s-.8.8-1.3.3l1.1-1.6c-1.1-.8-.6,1.4-1.5,1.2s-.6-1.1-.5-2.2.8.6,1.2.1a4.4,4.4,0,0,1-2.6-2.4c.1.8,0,2-.8,2.1s-.6-1.8-1.6-2.6c-.5,1-1.7-.2-1.8,2.1-.5-.1-.6-1.1-.8-1.8-1,1-4.6,0-3.5,2.6h.1c-1.7,1.1-3.3.7-5,.1s-3.2-1.3-4.8-.9v-.8c-1.9.9-4.2.4-5.6,2.1-.6,0-1.3-1.6-1-2.6-1.5.6-1.7,1.6-3.7,0,1.5-1.4-.5-1.4,1.5-1-1.9-.9-2.3-2.3-4.3,0,.7-2.2-1.4-2.9-2.3-2.3l1.3,1.7a5.3,5.3,0,0,1-2.8-.2l.6-3c-1.9-2-3.7-.5-5.3.7s-3.2,2.1-4.6-1.2c-1.1,2.2,2.1,1.7,1.1,4.2-1.8-.5-3.5-5.1-4.1-5.2-2.4-1.9-2.3,4.6-4.8,3.2.3,1.2.5,4.3-1.4,5.4-1.8-.5-2.1-5-.9-5.9s.6.3.5.7,1.4-.9.7-2.2l-.2,1.2c-.9-1.2-3.3-1.2-2.7-3.1-1.4,1-.6,1.9.3,2.5-2.2-1.8-3.5-.2-5.8-1.4.3.6.7,2,.3,2-3.4-1.6-1.6,2.2-3.9,2.7-1.3-1.9.6-4.4-1.8-2.9-1.4-1.3-.3-3.2.3-4.2C379,5.4,377.2,1.4,376,.9l1.1-.9a2.2,2.2,0,0,1-1.8.5l.6,2.5c-.6-.5-1.2-.5-1.2-1.5-.7,1.5.5,4-.9,6.2-.9-1.3-2.7,1.2-2.9-2,2.7,1.2-.3-3.3,2.1-3.7a1.4,1.4,0,0,1-1.7-.2.8.8,0,0,1,.3-.8c-2.6-3-1.3,3.6-4,3.5.3-1.8-.6-3.5-1.1-3.1,1.1,0,.5,3-.5,4.4-1.8-1.4-1.9,1.1-2.9.9l1.1.7c-.4,1.8-1.3,1.6-2.5,2.1-.1-1.4,1.1-1,.7-1.6-1.4,3.2-3-3.4-5-1.3-.8-1.2,0-3.4-.8-4.3-2.1,2.4-2.2-2.6-4.5-.6.6,2.5.7,1.9-.9,4.3l3.7-1.7-2.4,3.6c1.1,0,2.4-1.6,3-1.1-1.1,2-1,1.4-.5,3.4-1.5-3.7-3,2.2-4.7-.4V3.7c-2.6-2.7-4.7,3.1-8.1,1.6l1.1,1.1c-.5,2.4-2.2.3-3.3,1.3a7.1,7.1,0,0,0-1-4c0,1.5-2.5-.2-2.9,3.9l-1.5-2.7c-2.7-1-3.2,5.7-5.8,5.1.8-2.2-.4-3.6,1.4-5.2-.9,0-1.7-.3-1.7,1.1-.5-1.3-2.5,2.6-3.3.8-.4.8-.5,2.9-1.5,2.7a2.4,2.4,0,0,1,0-.9c0,.9-1.6,1.3-.7,3.5-1.4-3.1-3.3-2.9-5.1-2.7s-3.7.5-4.9-2a29.2,29.2,0,0,1-6,1.5c.1-.6,0-.9.3-.7-2.4-1.7-1.5,5.3-4.2,3.4s1.4-1.6.6-2.7c-.4-6.1-3.4.8-5.2-2.6l.4-.4c-1.4-1.9-3.4,2.3-5.8,1.9a1.5,1.5,0,0,0,.1-.8c-1.6,3-4.6,4-6.9,4.8.7-2.2,1.1-1.2.6-3.5-1,.4.3,3.7-1.7,4.3-.6-1.2-2.1-2.2-2.2-4.6l1.8-.2c-.9-3-2.4.2-3.4-.3V6c-2.8.5-2.9,3.9-6,3.7l.3,1c-1.7,3.2-1.4-1.8-3.1.6L272.3,8c-1.1.8-3.9,3.2-5.9,3.8,1.1-2.4,3.5-3.6,4.9-5.1-1.1,0-3.7.3-4.3,1.9.4-.3,1-1.1,1.4-.6-1.3,2.6-3.1,3.8-5.3,3.8.4-6.2-5.8-1.5-7.4-6.2-3.9,2.3-7.7-.8-12.3-.3,1.6,4.5-1.3.2-1,4.8-1.1.4-1.5.3-1.6,0l-3.2-2.7c-.8-1.4,1-1.1.9-2.1-2.3-.3-1-2-2.5-3.1.3,1.6-.8,2.4-2.1,1.8l1.8,2c-3.2,2.6-2.8-3.7-6-1.2l1-1.5c-1.7.9-6.2.2-7.8,3.8-.3-.5-.7-1.7,0-2-4-.4-8.9,4-12,2l.3-1.1c-.8.3-1.3,2-2.3,1s.3-1.1,0-1.1-2,1.9-3,1.3l.9-1.2c-4-1.2-6,3-9.3,3.8,0-3-3.1-3.8-4.6-4.2V5.1c-4.5-.1-7.7,2.8-11.9,4-2.6-2.9-8.9-.9-13.1-2.3.7.4-.1,2-.8,2.3s-2.7,1.9-2.6-.5h.4c-.8-2.4-2.8-1.6-4.4-1.6l-.2,3.1c-2.1-2.2-4.8-1.6-7.3-1s-4.7,1.1-5.9-.7c-1,.8-2.2.8-3.2,1.6V8.5a27.5,27.5,0,0,0-7.5.2l.6-1.1c-1.9,0-2.3,4.4-4.1,4.5l-.6-2.1c-3.3.1-6.8-1.5-10.1.6.1-.3.2-.9.7-1-1.6,0-6.1-1-5.5,1.7-.1-1.8-3.5,0-5.3.8l.3-1.3c-1.5,1.7-1.6,2.2-3.7,2.7-.5-.1-.5-1,.2-.7-1.7-.6-1.3,1.2-3.3.7l.7-.8c-1.7-.1-1.6.3-2.5,1.3s-3.3-.2-3.6-1.2A2,2,0,0,1,98,14c-.2-.3.2-.6.4-.7-2.9-.7-4.3,1.5-6.3.5-.1-.4-.2-.6-.4-.7h4c0-1.1-1.9-1.1-.4-2.7-1.5.9-4,2.8-5.9,2.4,0-.1-.1-.2-.2-.4h.2a2.5,2.5,0,0,0-1.2.2l-1.5-.2c-.2-.8-2.1-.3-3.1-.2s-1.1.9.1,1.7.2-.1.8-.2h.3l2.3-.2a2.3,2.3,0,0,1-2.5.5l-1.3,1.7c-1.3-1.4-3.8-2-4.1-2.8-2.8.7-6.7.7-8.4,2.6-.8.2-1-.5-1.3-.7s1-.2,1.3-.5c-1.6.5-4.8.4-5.2,1.6-2-.4,1.2-1.1-1.6-.8l.3-.4c-2.8-.7-5,.2-7.3.9a11.6,11.6,0,0,1-7.7.5c.4.1.6.1.7.3a63.1,63.1,0,0,0-10.6.4,62.8,62.8,0,0,1-10.6.2c-1.9-.1-2.1.4-3.3.8l-.5-.5-2,.7a13.3,13.3,0,0,1-4-.1,10.4,10.4,0,0,0-4.6.2l.4.2c-1.3.1-4.1.4-3.9.1a1.4,1.4,0,0,1-.9.2v-.2l-3.2.5c-2.5,0,.4-.8-3.3-.6-1.3.2-3.8.7-3.3.8s1.4,0,1.4.2H.3c-.2.5-1.1,1,1.9,1.3l2.1-.3.7.3H3.2a6.1,6.1,0,0,0,2.4-.1l.9.3,2.1-.6c.2.3-.9.5.5.6s-1-.5.6-.7.8.5,1.9.3,0,.3-.5.3c1-.2,2.8-.1,3.3-.4s3.6-.2,3.5.6a9.1,9.1,0,0,1,2.9-.6c-1.8.9,3.6,0,3.2,1,1.3-.8,4.7-.3,7-.9-.1.1-.3.3-.5.2a10.2,10.2,0,0,1,2.5.6c.2-.8,2.2-1,3.3-1.6s-1,1.1-.4,1.9,2.7-.7,2.2-1.3c1.2.5,1,.2,1.7,1,.2-1.1,1.1-.2,2.1-.9s.5,1.1,2.5.8S43.6,21.9,43.6,21.9Zm46.5-2.4Zm3.9-.1H92.3c-.1-.4,0-.8.4-.8S93.4,19.1,94,19.4Zm-8.5-7.3c.7-.1.9.1,1,.3l-1.1.2h-.1C85.4,12.5,85.4,12.3,85.5,12.1Z"/><path class="cls-1" d="M84.5,13.6h-.3l.4.2.2-.3Z"/><path class="cls-1" d="M439.4,13.3h-.1l.2.3Z"/><polygon class="cls-1" points="148.1 22.4 148.1 22 147.7 22.3 148.1 22.4"/><path class="cls-1" d="M460.7,20.7l.3.4C461,21,460.9,20.9,460.7,20.7Z"/><path class="cls-1" d="M470,20.9l1.3.6Z"/><path class="cls-1" d="M477.2,21.5a1.3,1.3,0,0,0,.1-.6h0Z"/><path class="cls-1" d="M363.3,26.3h-.2C362.4,27,362.9,26.7,363.3,26.3Z"/><path class="cls-1" d="M397.3,19.7a7.5,7.5,0,0,1-1.1,1.3C396.8,21.2,397.2,21.3,397.3,19.7Z"/><path class="cls-1" d="M325.6,28.7Z"/><path class="cls-1" d="M394.6,20.9a1,1,0,0,0,1.6.1C395.7,20.8,395.1,20.5,394.6,20.9Z"/><path class="cls-1" d="M508.2,20.5h0Z"/><path class="cls-1" d="M508.6,20.4h0Z"/><path class="cls-1" d="M509.8,20.1l-.8.2A1.1,1.1,0,0,0,509.8,20.1Z"/><path class="cls-1" d="M498.8,20.7l-.2.3C498.7,21,498.7,20.9,498.8,20.7Z"/><path class="cls-1" d="M495.9,20.9c.7.1,1.7.7,2.6.4V21C498.2,21.6,496.5,20.3,495.9,20.9Z"/><path class="cls-1" d="M484,15.6l2.4.5c-.4-.5-.9-1.2.2-1.2C483.6,13.1,487.2,16,484,15.6Z"/><path class="cls-1" d="M476.6,14.2c1.3-.2,0-.8.1-1.2S475.6,13.6,476.6,14.2Z"/><path class="cls-1" d="M422.5,10.5l.2-2.2C421.7,8.5,422.7,9.2,422.5,10.5Z"/><polygon class="cls-1" points="411.9 22.1 412.9 23.6 413.4 21.4 411.9 22.1"/><polygon class="cls-1" points="406.2 5 406.6 4.7 405 5.5 406.2 5"/><path class="cls-1" d="M315.2,4.3l.3,3.1C316.2,6.8,316.4,3.4,315.2,4.3Z"/><path class="cls-1" d="M276,8.2c-.5-1.3-1.6-2.2-2.2-.8S275.5,8.5,276,8.2Z"/><polygon class="cls-1" points="158.3 8 159 7.3 157.6 7.9 158.3 8"/></g></g></svg>