<svg xmlns="http://www.w3.org/2000/svg" viewBox="0 0 612.7 50.5"><defs><style>.cls-1{fill:#202020;}</style></defs><g id="Calque_2" data-name="Calque 2"><g id="Calque_1-2" data-name="Calque 1"><path class="cls-1" d="M612.6,13.3c.2-.9,0-2.8-.9-2.4l-.5,3.3Z"/><path class="cls-1" d="M606.3,7.5a9.9,9.9,0,0,0-1.2,7.5c.9-3.2,1.2-1.9,2.1-5.8.9-.4,1.6,1,1.5,2.3.3-.9,1.4.6,1.8-1.5-1.3-2.5-2.7-2.5-4.2-.3A4.1,4.1,0,0,1,606.3,7.5Z"/><path class="cls-1" d="M519.3,6.6l.5.4A.7.7,0,0,0,519.3,6.6Z"/><path class="cls-1" d="M465.4,7.4c.4-.1.5-.4.6-.7S465.3,7.2,465.4,7.4Z"/><path class="cls-1" d="M456,4.3l.6.2C456.4,4.2,456.1,4,456,4.3Z"/><path class="cls-1" d="M519.3,6.6l-1.5-1C517.7,6.7,518.5,6.4,519.3,6.6Z"/><path class="cls-1" d="M594.7,16c.3-.1.5-.5.8-.9l-.8.4Z"/><path class="cls-1" d="M542.8,2.7h.5l.3-1.3Z"/><path class="cls-1" d="M561,1.3c-.4-.1-.4,2.8-.5,4,.1-1.2.4-1.7.8-2A8.8,8.8,0,0,0,561,1.3Z"/><path class="cls-1" d="M590.1,4.9l.5-.5Z"/><path class="cls-1" d="M529.8,2.8a5.8,5.8,0,0,1-.2-1A3.6,3.6,0,0,0,529.8,2.8Z"/><path class="cls-1" d="M22,49v-.5C21.9,48.8,21.9,49,22,49Z"/><path class="cls-1" d="M.2,36.2.5,36V34.4Z"/><path class="cls-1" d="M439,1.5h.1C439.6,1.2,439.3,1.3,439,1.5Z"/><path class="cls-1" d="M284.9,11.2c1.9,2.4-2.7,3.3.1,6C284.7,16.1,287.2,12.7,284.9,11.2Z"/><path class="cls-1" d="M594.2,15.7c-.2,0-.5.1-.7,0A.8.8,0,0,0,594.2,15.7Z"/><path class="cls-1" d="M285,17.2h0l.3.3Z"/><path class="cls-1" d="M400.4,5.1a4.3,4.3,0,0,0,.5,1.2A7.8,7.8,0,0,0,400.4,5.1Z"/><path class="cls-1" d="M429.5,7.7l-.8-.4A2,2,0,0,0,429.5,7.7Z"/><path class="cls-1" d="M385.6,9.8c-.4-.2-.5-.6-1-.2a.5.5,0,0,0,.2.4C384.9,9.6,385.2,9.4,385.6,9.8Z"/><path class="cls-1" d="M370.1,10.6c0,.2.2.3.3.5h.5Z"/><path class="cls-1" d="M69.3,45.3a17,17,0,0,1-.9-2.4C68.8,44.8,66.5,45.7,69.3,45.3Z"/><path class="cls-1" d="M594.6,14.4c0,.8-.1,1.1-.4,1.3l.5-.2A1.4,1.4,0,0,0,594.6,14.4Z"/><path class="cls-1" d="M386.1,32l-2.5-.3A9.5,9.5,0,0,0,386.1,32Z"/><path class="cls-1" d="M181.1,39.4l-.6.4A.5.5,0,0,0,181.1,39.4Z"/><path class="cls-1" d="M376.3,32.5a4.5,4.5,0,0,0-1.5-1.9l-.3.7Z"/><path class="cls-1" d="M68.4,42.8h0Z"/><path class="cls-1" d="M52.5,50.3c2.3,0,.9-3.7,1.3-5.8,2.8-1.2,1.4,2.6,2.5,4.5,1.7-1.1,2.9-4.5,4.2-4.5s.4.9.1,1.6c1.7-3,5.5-.4,7.5-4.2a1.9,1.9,0,0,1,.3.9,24.1,24.1,0,0,1-.5-5c1-.1,1.8-2.4,2.3-.1-.6,0-.6,1-.9,1.8l1.1-1.2c1.1,3.5-1.5,1.3-1.4,3.9,2.1-1.2,4.5-4.2,6.2-3.3.5,3.3-3.8,1.3-1.4,4.2l-2.7-1.2c2.3,5.3-1.5-.3.5,5.4,3.5.8,3.7-1.9,7.1-1.1.7-1.9-.3-2.8.3-4.7,4.6-3.6,4.2,8.3,7.5,3.6.8-2.3.9-6.6,3.5-4.4l-.6,3.8c3.3.3,1.6-5.6,5.1-3.2-.5,1.6-2.5,1.4-2,1.9,2.4,2.9,1.5-2.3,3.2-2.4l.5,3.4c3.5-.7,7.2-3.3,11-4.1-.2,1-.8,2.1.2,3.1,4.7-2,10.4-.1,15.1,1.7l1.7-3.1c.4,0,.8,1.3.4,1.9,1.9,1,0-1.9.8-3.1s1.5,1.7.9,2.6c3.1-2.7,8.9-5.8,12.4-2.9l-.6.9c2.7,1.1,2.7-6.1,5.3-3.5l-.5.5c5.8,1,12-2,16.6,2.2.7-4.2,5.8,1.6,5.9-4.3,3.4,2.8,2.5,3.9,7.2,5.6,1.3.2,1.7-3.7,3.2-4.4l.2,3,1.9-3.3,1.3,3.6,1.3-.8a2.8,2.8,0,0,1-1.2-2.2c2.2-1.5,5.5,1.8,5.7,3.4l5.1-2.8c0,1.2-.9,1.7-1.5,2.5,2.6-3.3.6,3.2,3.1.2-.4-.7.1-1.8.1-2.5,1.4,1.8,4.3,1.7,6.4.8l-.3,2.2c4,.3,8.2-1.5,12.6-1.7-1.6-.9-1.4-4.6-.2-5l.7,3.2c.8-2-1.4-1.1.2-3.7,1.7.3,1.3,3.7.4,4.8l1.9-1.2c.2.9-.2,1.5-.3,2.7.7-2,3.6,3.1,4.6-.5l.2,1c4.4-.2,6.3-1.4,9.9-1.7-.1-2.9,1.3-2.3,2.3-4.6,2.7.7,5.7,2.8,8.8,2.4s.6-2.4,1.5-4.1c.3,2.5,3.4,2.1,1.9,4.1a26.8,26.8,0,0,0,9.5-3.1c-.5-1-1.2-1.5-.9-2.3s2,.9,2,2.2l-.2.2c5.2-4.1,12.8,6.9,16.8,1.3l-.2.3,4.3-3c2.1.4-1.1,2,.5,3.5,4.6-4.5,7.6.2,11.4-2.8,3.5,7.4,10.9-1.1,15.3,3.5l-.4-1.7c1-1.8,1.4.9,2.2,1.3-.2-1.4-1.3-1.5-.6-2.5,8.9-2.6,18.8,1.6,28.2,2.8,3.4.3,1.4-9.3,5.9-5.3l-1,3.4c6.6-4.3,14-.6,20.5-4.3-.3.8-.3,1.8-.9,1.8,1.5,2.4,5.2-.1,5.1-2.1,1.1.2.4,1.8,1.1,2.7s3.4-3.2,4.2-.8c.2.3-.3.8-.6,1,.9-1.3,4.4,0,3.3-2.7,2.6,1.2,4.8-1.5,6.9.1,1.1-3.2,4.4,1.3,4.6-3.1,0,4.5,4.6,3.4,6.1,1.2-.5,1.4,1.4,1.3.9,3.3,1.8-.2,3.4-1.1,3-3.4,3.6,5.2,6.5-4.7,8.7,2.1a77.4,77.4,0,0,1,15-5.9c.1,4.6-5.3.8-4.9,5.5,4.5-2.1,7-6.1,11.6-5.2,1.2.5-.6,1.9-.9,2.7,4.5-2,8.9,0,12.9-2.7a2,2,0,0,1-.8,1.3c.8-.2,1.9.6,1.7-1.5l-.8.6c-1.4-2.9,2.9-6.3,3-7.9-1.1,5.9,4.1,1.3,2.3,8.8a3.1,3.1,0,0,0,.9-2.8c.8.4,1.1,1.2.4,2.8,2.9-1.3,1.7-3.4,4.3-3.5.1,1-.4,1.4-.6,2.6,1.2-2,2.4-4,4.7-3.3-.1.6.2,1.4-.5,1.4,3.8-.5,6.2-5.5,10.5-3.8-1,4.3,1.5,1.3,1.9,5l2.2-1.2-1-1.7c2-.1,3.6-2.9,5.3-1.7l-1.4,1.6,3.7-.9-2.2-1.3c1.9-2.1-.4-4.7,2.2-3.8-.5.4,2-.1,3.1,2.1h0c.9-1.3,1.9-2.6,3.4-1.7s-.1,4.1.2,4.9c.8-3.2,4.5-1.1,5.6-4.5a7.2,7.2,0,0,0-.2,3.2l.7-2.6c1,.8,1.1,1.2,1,2.7,2.8.4-1.1-4.7,2.3-2.8-.3.2-.1.6-.6,1,3.3.9,6.2-1.9,9.3-.8,1,3.7-2.6,1.1-1.4,4.2,4.2-.9,8.7-5,12.9-4.3l-.8-.4c.3-5.3,3.3,2.5,5.2-.1a4.2,4.2,0,0,0-.4,2.4c2.9.7,5.8-1.6,10.1-3.5l-.5,1.4c1.8,1.1,4.5.5,6.3,1,.5-1.4,1.6-1.2.8-3.2,6,7.5,10.6-4.7,15.9,1.6-.6,0-1.4,1.2-.9,1.2l4.2-1.5c-.5-2.3-.7-1.3-1.6-3.1a3.6,3.6,0,0,1,2.6-2.6c-1.8,1.7.2,3.8,1.1,5a16.2,16.2,0,0,1,0-2.2c2.4,4,.1-4.7,3.3-2.1v1.3c1.1-.7,2.1-2.4,3.3-2.1.6,2.7-1.1,1.3-1.1,3.5,1.7-.2,3.1-5.2,4.8-2.6-.7.8-1.7.8-2.4,1.6,1.8,3.1,2,2.2,3.3,2.7h-.2l3,1.3-.8-.8c1.8-7.1,4.3-1.5,7-6.2-2.6,4.4-.3,2.5-.4,5.5.8.8,2,1.7,1.7,2.6,1.2-2.5,2.4,1.8,4.1-1.9.2,1,1.5.1,1.3,2.5,1.7-.8-.5-1.6-.4-2.9,2.6-3.4,6.6,3.7,10.4-1,3.3-2.1,3.7-5.4,6.8-7.2,1.2,1.5-.7,3.6-.7,3.6,1.8,1.4,3.1,1,4.6-.2a3.7,3.7,0,0,0,.7,2.7c1.3-.3.7-3.6,2.5-2.3a29.8,29.8,0,0,1-1.1,4c1.4-1,2.9-2.8,4.4-3.8.5,1.7-.8,2.6-1.3,3.8,1.7-.9,4.5-1.8,4.9-4.5l-1.2-.9c.7-.2.5,2.3,0,2.8-1.4,2.2-2.2-.8-2.3-1.8l1.1-.7c-1.5-5.7-4.5,1.1-6.8.9l.7-4.2-2.1,3.6c-.6-1.1-1.1-3.4,0-4.1-1.7-1.9-1.3,1.6-2.8-.6-.2-.4-.2-.6,0-.7l-1.6,1.3c.3-.9-.4-3,.6-2.4-2.9-2.3-4.4,3.3-5.6.2l.2-.2c-3.9,1.6-.2,3.1-3,6.8l-2.4-7.4-.3,3a1.2,1.2,0,0,1-1.1-1.5c-1.4,2.2.3,1.3-.5,3.3-2.1-2.6-5.3,1.6-6-3.2-.6,2.3,2,1.7-.1,3.4-.8-5.2-2.4,1-4.3-1.3.4-2.7,2.2-1.4.3-3.7-.9,4.6-3.6-.8-5,.1.1,3.6-3.3,1.7-5.7,3,.1-1.2-4.9-1.7-7.4-2.9V2.8c-.3,3.7-2.8,3.1-4.5,3.9-.1-2.2.2-3,1.1-4.1h-1.6A3.2,3.2,0,0,1,541.4,5l.3-2.7c-2.3.2-4.4,3.4-7.3,1.7-.1,2.6,2.6,7-.3,8.9-.2-1.4-.5-3.7.3-4.3s-.9,1.2-1.4.6l1.1-2.4c-1.4-1-.6,2-1.7,1.8,0-2-.8-1.4-.7-2.9s.9.7,1.3-.1a4.4,4.4,0,0,1-3.2-2.8c.1,1.1.1,2.6-.7,2.9-2.3.3-.9-2.3-2.3-3.2-.4,1.3-1.9,0-1.8,2.9-.7.1-.9-1.3-1.2-2.1-1,1.4-5.3.6-3.9,3.7l.3.2c0,.1-.1.1-.1.2h0c-3.7,3.1-8-1.3-11.7.1v-1c-2.2,1.3-4.9.9-6.4,3.1-.7.1-1.7-1.7-1.5-2.9-1.6.9-1.8,2-4.3.5,1.6-1.8-.7-1.5,1.7-1.4-2.3-.7-2.9-2.3-5.1.5A1.9,1.9,0,0,0,489.9,4l1.7,1.8a7.4,7.4,0,0,1-3.3.1l.4-3.4c-4.8-3.8-7.9,7.3-11.7.7-1.1,2.4,2.6,1.5,1.6,4.3-2.1-.4-4.5-5-5.1-5-3-1.7-2.5,5-5.5,3.9.4,1.1.9,4.3-1.3,5.5-2.1-.3-2.8-4.8-1.5-5.8s.8.2.8.6,1.5-1,.6-2.3l-.2,1.2c-1.1-1.1-4-.8-3.4-2.8-1.6,1.2-.6,2,.6,2.5-2.8-1.6-4.2.2-7-.8.5.6.9,2,.5,2-4.1-1.3-1.7,2.3-4.4,3-1.7-1.8.3-4.4-2.4-2.7-1.7-1.2-.5-3.2.2-4.2-2.4,2.4-4.8-1.2-6.3-1.6l1.3-1a3,3,0,0,1-2.1.6l.9,2.4c-.8-.4-1.5-.4-1.5-1.4-.7,1.6.8,4-.7,6.2-1.1-1.2-3.1,1.4-3.6-1.7,3.3.9-.5-3.2,2.2-3.8a1.6,1.6,0,0,1-1.9,0c-.2-.3,0-.6.2-.8-3.2-2.7-1.2,3.6-4.5,3.7.4-1.8-.9-3.3-1.4-2.9,1.3,0,.8,2.9-.3,4.3-2.2-1.3-2.2,1.2-3.3,1.1l1.2.5c-.3,1.8-1.4,1.7-2.8,2.3-.2-1.4,1.3-1,.7-1.6-1.4,3.2-3.7-3.1-5.9-.8-1.1-1.2-.2-3.4-1.2-4.1-2.4,2.4-2.8-2.3-5.4-.3.9,2.3,1,1.8-.7,4.2L419.6,6,417,9.6c1.3-.1,2.7-1.7,3.5-1.3-1.2,2-1.1,1.4-.4,3.4-2-3.5-3.5,2.2-5.7-.1l-.2-5.9c-3.2-2.5-5.4,3.3-9.5,2l1.4,1c-.5,2.4-2.5.4-3.8,1.5,0-2-.8-2.7-1.4-3.9.1,1.5-3,0-3.2,4l-1.9-2.5c-3.3-.9-3.5,5.8-6.6,5.2.8-2.1-.7-3.5,1.3-5.1-1,0-2-.3-1.9,1.1-.7-1.2-2.8,2.8-3.8,1-.4.8-.5,2.9-1.7,2.8a3.1,3.1,0,0,1,0-1c0,1-1.8,1.5-.7,3.6-3.5-6-9,.9-12-4.3a33.6,33.6,0,0,1-7.1,1.8c.1-.6,0-1,.4-.8-3-1.7-1.5,5.8-4.9,3.9-1.8-3.1,1.7-1.8.6-3-.8-6.4-3.9,1.1-6.3-2.6l.5-.4c-1.8-2.1-3.9,2.7-6.7,2.3a2.4,2.4,0,0,0,0-.9c-1.8,3.4-5.2,4.6-7.8,5.7.7-2.6,1.1-1.4.5-4-1.2.5.5,4.2-1.8,5-.8-1.4-2.6-2.5-3-5.2l2.3-.3c-1.4-3.5-2.9.3-4.1-.3V10.7c-3.4.7-3.3,4.6-7,4.5l.5,1.2c-1.8,4-1.8-2.1-3.7.9l-.8-3.9c-1.2,1-4.4,4-6.7,4.9,1.2-3,3.9-4.6,5.5-6.5-1.3.1-4.5.5-5,2.5.5-.4,1.1-1.4,1.6-.8-1.4,3.2-3.5,4.8-6.1,4.9.1-7.7-6.9-1.6-9.1-7.5-4.4,3.1-9.2-.7-14.5,0,2.2,5.9-1.6.3-1,6.3-1.2.5-1.7.4-1.8,0l-4-3.4c-1-1.8,1.1-1.4,1-2.8-2.8-.3-1.3-2.5-3.2-4.1.5,2.2-.8,3.2-2.4,2.5l2.3,2.7c-3.7,3.4-3.5-5-7.2-1.6l1.1-2c-1.9,1.3-7.3.3-9,5.4-.4-.7-1-2.4-.1-2.9-4.8-.5-10.3,5.8-14.1,2.9l.2-1.5c-.8.5-1.4,2.9-2.5,1.5s.2-1.6-.2-1.6-2.2,2.7-3.4,1.9l.9-1.7c-4.7-1.8-6.9,4.4-10.7,5.6-.2-4.4-3.9-5.6-5.8-6.2v-.7c-5.4-.2-9,4.1-13.9,6.1-3.3-4.6-10.6-1.5-15.7-3.9.8.8.1,3.4-.8,3.9s-3.1,3.2-3.1-.8h.4c-1-3.9-3.4-2.7-5.3-2.7v5.3c-5.3-7.5-12.7,3.4-15.7-3.3-1.1,1.4-2.6,1.4-3.7,2.8V15.8a18.2,18.2,0,0,0-9,0l.8-2.1c-2.3,0-2.5,8.3-4.6,8.6l-.9-4.2c-3.9.3-8.2-3.2-11.9.8,0-.6.1-1.9.7-2.1-1.9,0-7.4-2.5-6.4,3.3-.2-3.8-4.1-.2-6.2,1.6l.2-2.8c-1.6,3.7-1.7,4.6-4.1,5.7-.7-.3-.7-2.2.2-1.5-2.1-1.3-1.5,2.7-4,1.4l.8-1.9c-2-.1-1.8.9-2.8,3s-4-.5-4.4-3c-.2,1.5-1.2,3.6-2.5,3a2.3,2.3,0,0,1,.4-1.9c-3.5-1.7-5,3.5-7.5.9a2.4,2.4,0,0,0-.4-1.6c2.7-.1,4.9-.1,4.7.1-.1-2.5-2.3-2.9-.8-6.5-1.6,2-4.5,6.4-6.7,5.3a9.4,9.4,0,0,1-.3-.9l.2-.3c-.5-.2-.9,0-1.3.5a3.7,3.7,0,0,0-1.9-.7c-.3-2.1-2.6-1-3.7-1.1.3,2.8-1.2,2.5.3,4.7-.2-.2.2-.3.9-.5s.3-.1.4-.3v.3l2.7-.4c-.8,1.5-1.6,2.7-2.9,1.2-.5,1.9-1,3.8-1.3,4.7-1.8-3.9-4.8-5.9-5.3-8.3-3.3,1.8-7.9,1.5-9.7,6.9-.9.7-1.2-1.5-1.6-2.3s1.2-.5,1.5-1.3c-1.9,1.5-5.7.8-6,4.5-2.5-1.5,1.2-3.4-2.1-2.7l.4-1.1c-6.8-5.6-10.1,9.9-17.7,2.7.5.4.8.6.9,1.3-8.4-3-16.8,3.9-25.2-1-2.4-.9-2.5,1.5-3.8,3.3l-.7-3-2.2,3.6C24,34.4,21,24.6,16.9,29.6l.7,2.1c-1.6-.4-4.9,1.4-4.8-1-.1.4-.4,2.2-1,1.2V30.3L8,33.2c-3-1,.1-6.3-4.2-6.4-1.6.7-4.4,4.8-3.7,5.8a2.5,2.5,0,0,1,1.8,2.5L.5,36c0,4.7-.9,9.5,2.8,12.6l2.4-3,.9,2.2-2.1.3c1.3,2,2,.1,2.8-1.2a3.4,3.4,0,0,0,1.2,2.4l2.2-4.6c.4,1.8-.9,3.7.8,4.6,1-2.1-1.3-4,.5-5.4,1.3,2,1.1,3.7,2.4,1.9a2.5,2.5,0,0,1-.6,2.5c1.2-1.5,3.3-.8,3.9-3.3,1.3,2.6,4.2-.9,4.3,3.5.3-1,2-3.5,3.2-3.8-1.9,5.4,4.3.1,4,5.8,1.3-4.8,5.5-2.4,8.2-5.1-.2.3-.4,1.1-.7.9,1.6.3,2.1,1.7,3.2,2.6,0-4,2.3-5,3.5-7.5,2.1,3.7-.9,4.7-.1,8.3-.3-3.2,3.1-3.3,2.3-5.9,1.6,2.2,1.4,1,2.3,4.2,0-4.9,1.3-.9,2.3-3.9,2.3,2.3.8,4.5,3.1,2.9C54.4,48.5,52.5,50.3,52.5,50.3Zm54.7-11.2h0l-1.2.2Zm4.6-.3h-2c-.2-.9-.1-1.9.4-1.9S111.1,38.1,111.8,38.8ZM101,19.9c.7-.5,1,.1,1.1.6l-1.2.4c0,.2-.1.3-.1.4A5.9,5.9,0,0,1,101,19.9Z"/><path class="cls-1" d="M99.9,23.6l-.3.2c.2.3.3.5.5.6a1.9,1.9,0,0,1,.2-.8Z"/><path class="cls-1" d="M519.9,7h-.1l.3.4C520,7.2,520,7.1,519.9,7Z"/><polygon class="cls-1" points="176 41.1 176 40.3 175.6 41 176 41.1"/><path class="cls-1" d="M545.9,15.4a2.5,2.5,0,0,0,.4.7C546.3,15.9,546.1,15.7,545.9,15.4Z"/><path class="cls-1" d="M557,15.5l1.6.9A5.4,5.4,0,0,0,557,15.5Z"/><path class="cls-1" d="M565.5,16.5a6.2,6.2,0,0,0,.1-1.3h0Z"/><path class="cls-1" d="M431,26.4l-.4.2C429.9,27.1,430.4,26.9,431,26.4Z"/><path class="cls-1" d="M470.7,17.9l-1.2,1.4C470.2,19.4,470.8,19.5,470.7,17.9Z"/><path class="cls-1" d="M386.4,32Z"/><path class="cls-1" d="M467.6,19.3a1.5,1.5,0,0,0,1.9,0A2.1,2.1,0,0,0,467.6,19.3Z"/><path class="cls-1" d="M602.3,15.9h.4v-.4Z"/><path class="cls-1" d="M602.7,15.6l.5-.4C603,15.2,602.8,15.2,602.7,15.6Z"/><path class="cls-1" d="M604.1,14.4l-.9.8C603.5,15.2,603.9,15.3,604.1,14.4Z"/><path class="cls-1" d="M591,15.2v1A2.8,2.8,0,0,0,591,15.2Z"/><path class="cls-1" d="M587.6,15.6c.8.2,2.2,2.1,3.3,1.4v-.8C590.5,17.7,588.3,13.9,587.6,15.6Z"/><path class="cls-1" d="M572.8,3.8l2.9.6c-.6-1-1.3-2.5,0-2.8C571.9-1.4,576.5,4,572.8,3.8Z"/><path class="cls-1" d="M563.8,2.6c1.5-.6-.1-1.6,0-2.2C562.9,1.5,562.6,1.7,563.8,2.6Z"/><path class="cls-1" d="M499.8,5.8V3.2C498.7,3.6,499.9,4.2,499.8,5.8Z"/><polygon class="cls-1" points="488.3 19.6 489.5 21.1 489.9 18.7 488.3 19.6"/><polygon class="cls-1" points="480.1 1.7 480.6 1.3 478.7 2.4 480.1 1.7"/><path class="cls-1" d="M372.7,8l.5,3.1C374,10.5,374,6.9,372.7,8Z"/><path class="cls-1" d="M326.5,13.5c-.6-1.6-2-2.5-2.7-1C324.9,12.7,326,13.9,326.5,13.5Z"/><polygon class="cls-1" points="187.1 15.2 187.9 14.1 186.2 15.1 187.1 15.2"/></g></g></svg>