<svg xmlns="http://www.w3.org/2000/svg" viewBox="0 0 564.9 101.6"><defs><style>.cls-1{fill:#202020;}</style></defs><g id="Calque_2" data-name="Calque 2"><g id="Calque_1-2" data-name="Calque 1"><path class="cls-1" d="M564.8,14.9c.3-.9.1-2.8-.7-2.4l-.6,3.3Z"/><path class="cls-1" d="M559.2,8.8a10.3,10.3,0,0,0-1.4,7.5c.9-3.2,1.1-1.9,2.2-5.7.8-.4,1.4,1.1,1.3,2.3.3-.9,1.3.7,1.7-1.4s-2.5-2.6-3.9-.5A4.1,4.1,0,0,1,559.2,8.8Z"/><path class="cls-1" d="M478,5.8l.5.4A1,1,0,0,0,478,5.8Z"/><path class="cls-1" d="M427.6,7a.7.7,0,0,0,.5-.8C427.8,6.5,427.5,6.7,427.6,7Z"/><path class="cls-1" d="M418.8,3.9l.5.2C419.1,3.8,418.9,3.7,418.8,3.9Z"/><path class="cls-1" d="M478,5.8l-1.4-.9C476.5,5.9,477.3,5.6,478,5.8Z"/><path class="cls-1" d="M548.1,16.9c.3-.1.5-.4.7-.8l-.7.3Z"/><path class="cls-1" d="M500,2.2h.4a4.9,4.9,0,0,0,.3-1.4Z"/><path class="cls-1" d="M517.1,1.2c-.4-.1-.5,2.7-.6,3.9a3,3,0,0,1,.8-1.9A16.8,16.8,0,0,0,517.1,1.2Z"/><path class="cls-1" d="M544.2,5.6l.4-.4C544.5,5.3,544.3,5.4,544.2,5.6Z"/><path class="cls-1" d="M487.8,2.1a2.5,2.5,0,0,0-.2-1A3.6,3.6,0,0,0,487.8,2.1Z"/><path class="cls-1" d="M24,98.2l-.2-.5C23.8,98,23.8,98.2,24,98.2Z"/><path class="cls-1" d="M1.2,90.2l.2-.2A8.3,8.3,0,0,0,1,88.5Z"/><path class="cls-1" d="M402.8,1.7h0C403.2,1.4,403,1.4,402.8,1.7Z"/><path class="cls-1" d="M259.2,21c2,2.3-2.2,3.6.7,6C259.5,25.9,261.5,22.3,259.2,21Z"/><path class="cls-1" d="M547.7,16.6h0Z"/><path class="cls-1" d="M259.9,27h0l.3.2Z"/><path class="cls-1" d="M366.7,6.7a3.3,3.3,0,0,0,.5,1.2A3.3,3.3,0,0,0,366.7,6.7Z"/><path class="cls-1" d="M394,8.1l-.7-.3Z"/><path class="cls-1" d="M353.1,12.1c-.3-.2-.5-.6-1-.1s.2.2.2.3S352.7,11.7,353.1,12.1Z"/><path class="cls-1" d="M338.6,13.8l.4.5.4-.2Z"/><path class="cls-1" d="M66,85.3A17.1,17.1,0,0,1,64.7,83C65.4,84.9,63.5,86.1,66,85.3Z"/><path class="cls-1" d="M548.1,15.4c-.1.7-.2,1-.4,1.2l.4-.2A1.7,1.7,0,0,0,548.1,15.4Z"/><path class="cls-1" d="M355,34.2l-2.4-.2A6.3,6.3,0,0,0,355,34.2Z"/><path class="cls-1" d="M166.9,61.2l-.4.5C166.7,61.7,166.9,61.6,166.9,61.2Z"/><path class="cls-1" d="M345.9,35.2a4.3,4.3,0,0,0-1.5-1.7,6.4,6.4,0,0,0-.2.7Z"/><path class="cls-1" d="M64.7,83Z"/><path class="cls-1" d="M51.8,93.3c2.1-.5,0-3.7-.1-5.9,2.3-1.7,1.9,2.3,3.3,3.9,1.3-1.3,1.6-4.9,2.8-5.1s.6.7.5,1.5c.9-3.3,4.9-1.5,5.9-5.5a2.2,2.2,0,0,1,.5.8,23.2,23.2,0,0,1-1.6-4.9c.9-.3,1.2-2.7,2.1-.4-.6,0-.4,1-.4,1.8l.7-1.3c1.8,3.1-1.1,1.5-.4,4,1.6-1.6,3.2-5,4.9-4.4,1.2,3.2-3.2,2-.4,4.4l-2.7-.6c3.2,4.7-1.4,0,1.6,5.1,3.3.2,2.9-2.6,6.2-2.4.2-2-.9-2.7-.7-4.6,3.5-4.4,5.5,7.4,7.6,2.2.2-2.4-.5-6.6,2.3-5l.2,3.9c3-.3.3-5.7,4-4-.2,1.6-2,1.8-1.4,2.1,2.7,2.5.9-2.4,2.4-2.8l1.1,3.2c3-1.3,5.9-4.5,9.2-6,.1,1-.3,2.2.8,3a12.2,12.2,0,0,1,6.8-1.8,35.6,35.6,0,0,1,7.3.9l1-3.2c.4,0,1,1.1.7,1.8,1.9.7-.3-1.8.2-3.1s1.6,1.3,1.2,2.3c2.4-3.1,7.1-7.1,10.9-4.8l-.4,1c2.6.6,1.4-6.5,4.2-4.3l-.3.6c5.4,0,10.6-3.9,15.5-.4-.1-4.3,5.6.8,4.7-5.1,3.6,2.3,2.9,3.5,7.5,4.5,1.2,0,.9-3.9,2.2-4.8l.7,3,1.2-3.6,1.7,3.4,1.2-1a2.7,2.7,0,0,1-1.5-2.1c1.7-1.7,5.4,1.1,5.7,2.6l4.3-3.5c.1,1.2-.6,1.8-1,2.7,1.9-3.6,1.1,3.1,2.8-.2-.4-.6-.2-1.9-.2-2.5,1.5,1.6,4.2,1.1,6,0v2.1c3.7-.1,7.4-2.4,11.4-3.2-1.7-.6-2-4.3-.9-4.9l1.1,3.1c.3-2.1-1.5-1-.4-3.7,1.6.1,1.7,3.5,1,4.7l1.6-1.5c.3.9,0,1.5.1,2.8.4-2.2,3.8,2.6,4.2-1.1l.3.9c4-.7,5.6-2.1,8.8-2.9-.4-2.8,1-2.4,1.5-4.9,2.6.5,5.7,2.2,8.5,1.5s.2-2.5.8-4.3c.6,2.5,3.5,1.8,2.3,3.8,3.4-1,4.3-1.2,8.4-4-.7-1-1.3-1.4-1.2-2.3s2,.8,2.1,2v.3c4.3-4.6,12.6,5.4,15.6-.5v.2l3.6-3.3c2,.1-.8,2,.8,3.4,3.8-4.9,7.1-.5,10.3-3.9,4,7.1,9.9-2,14.4,2.1l-.5-1.7c.7-1.9,1.3.8,2.1,1.1-.3-1.3-1.3-1.4-.8-2.4,4-1.8,8.4-1.7,12.9-1.2s9,1.5,13.4,1.7.5-9.4,5-5.7l-.7,3.4c2.9-2.4,6.2-2.8,9.4-3.1s6.4-.5,9.3-2.5c-.3.8-.2,1.8-.8,1.8,1.6,2.2,4.9-.4,4.7-2.4.9.1.4,1.7,1.1,2.7s2.9-3.5,3.9-1.2c.2.4-.3.8-.5,1s4-.1,2.9-2.8c2.5,1,4.3-1.7,6.3-.3.9-3.3,4.2,1,4-3.4.4,4.5,4.5,3.1,5.8.9-.4,1.4,1.4,1.2,1,3.2,1.7-.3,3.1-1.3,2.6-3.5,3.7,5,5.8-5,8.2,1.7a66.9,66.9,0,0,1,13.6-6.5c.3,4.5-4.9.9-4.3,5.6,4.1-2.3,6.2-6.4,10.5-5.7,1.2.5-.4,2-.7,2.8,4.1-2.3,8.2-.3,11.8-3.1a2.1,2.1,0,0,1-.7,1.3c.7-.2,1.8.5,1.5-1.5l-.6.6c-1.5-2.9,2.4-6.4,2.4-8-.8,5.9,3.9,1.1,2.5,8.7a3.1,3.1,0,0,0,.8-2.8c.7.3,1,1.1.4,2.7,2.6-1.3,1.5-3.4,3.9-3.6.1,1-.4,1.5-.5,2.6,1-2,2.1-4,4.2-3.4-.1.7.2,1.4-.4,1.4,3.5-.6,5.6-5.6,9.6-4.1-.8,4.4,1.5,1.3,2,5.1l1.9-1.3-.9-1.8c1.8,0,3.2-2.8,4.9-1.7l-1.3,1.6,3.4-.9-2-1.3c1.7-2.1-.6-4.7,1.9-3.8-.4.4,1.9-.1,3,2h0c.8-1.2,1.6-2.5,3-1.7s0,4.1.3,4.9c.7-3.1,4.2-1.1,5.1-4.5a6.4,6.4,0,0,0,0,3.1l.6-2.5c.9.7,1,1.1,1,2.7,2.5.3-1.1-4.7,2-2.9-.2.3-.1.6-.5,1,3,.9,5.7-2,8.6-.9,1,3.7-2.4,1.1-1.3,4.2a27,27,0,0,0,6-2.8c2-1.1,4-1.9,6-1.5L463,16c.2-5.3,3,2.5,4.8-.1a4.7,4.7,0,0,0-.3,2.4c2.7.7,5.3-1.6,9.3-3.5l-.4,1.4c1.6,1.2,4.1.5,5.8,1.1.5-1.4,1.5-1.3.8-3.2,5.5,7.5,9.8-4.7,14.7,1.7-.5,0-1.3,1.2-.8,1.2l3.9-1.4c-.4-2.3-.6-1.4-1.5-3.1s1.5-2.5,2.5-2.5c-1.7,1.5.2,3.7,1,4.9a16.2,16.2,0,0,1,0-2.2c2.2,4.1.2-4.6,3.1-2V12c1-.7,1.9-2.3,3.1-2,.5,2.6-1.1,1.3-1.1,3.5,1.6-.2,3-5.2,4.5-2.6-.6.8-1.6.8-2.3,1.6,1.7,3.1,1.9,2.3,3.1,2.7h-.2l2.8,1.3-.7-.8c1.8-7,4-1.4,6.6-6.1-2.5,4.4-.4,2.6-.5,5.6.7.8,1.8,1.7,1.5,2.6,1.2-2.5,2.2,1.8,3.9-1.8.1,1,1.3.1,1.1,2.5,1.6-.8-.4-1.7-.3-2.9,2.5-3.4,6.1,4,9.6-.7,3.2-1.9,3.7-5.2,6.6-6.9,1.1,1.6-.7,3.6-.7,3.6,1.6,1.4,2.8,1.1,4.3,0-.3.9,0,1.6.5,2.7s.8-3.6,2.4-2.2a20.3,20.3,0,0,1-1.2,4c1.4-1,2.8-2.8,4.3-3.7.4,1.7-.9,2.6-1.4,3.7,1.7-.8,4.3-1.6,4.8-4.3l-1.1-.9c.6-.2.3,2.3-.1,2.8-1.4,2.1-2.1-.9-2.1-1.9l1-.6c-1.1-5.8-4.2.9-6.3.6l.8-4.2-2.1,3.5c-.5-1.1-.9-3.4.2-4-1.6-2-1.4,1.5-2.7-.8a.6.6,0,0,1,.1-.7l-1.5,1.2c.3-.8-.3-2.9.6-2.3-2.7-2.4-4.2,3.2-5.3,0l.2-.2c-3.7,1.4-.3,3-3,6.7l-2-7.6-.3,3.1A1.2,1.2,0,0,1,531.8,5c-1.3,2.1.3,1.3-.5,3.3-1.9-2.8-5,1.4-5.5-3.5-.6,2.4,1.8,1.8-.2,3.4-.6-5.2-2.2,1-3.9-1.3.4-2.8,2-1.4.3-3.7-.9,4.6-3.3-.9-4.7,0,0,3.6-3.1,1.6-5.4,2.9.1-1.3-4.5-1.9-6.8-3.1V2.3c-.3,3.7-2.6,3.1-4.2,3.9,0-2.2.2-3.1,1.1-4.1h-1.6a3,3,0,0,1-1.7,2.3l.2-2.8c-2,.2-4,3.4-6.8,1.6,0,2.6,2.4,7.1-.3,8.9-.2-1.4-.4-3.7.3-4.3s-.8,1.2-1.3.6l1-2.4c-1.2-1-.5,2-1.5,1.8-.1-2-.8-1.4-.7-2.9s.9.7,1.2-.1a4.8,4.8,0,0,1-3-2.8c.2,1.1.1,2.6-.7,2.9s-.8-2.3-2-3.3c-.5,1.4-1.9.1-1.8,3-.6,0-.8-1.3-1-2.1-1.1,1.3-5.1.6-3.7,3.7l.3.2h-.2c-3.4,3.1-7.4-1.3-10.8.1v-1c-2,1.2-4.6.9-6,3.1-.6,0-1.5-1.7-1.3-2.9-1.6.8-1.7,1.9-4.1.4,1.5-1.8-.6-1.5,1.6-1.3-2.2-.8-2.7-2.3-4.8.5.6-2.5-1.7-3-2.7-2.2L452.1,5a5.5,5.5,0,0,1-3.1.1l.3-3.3c-4.5-3.8-7.2,7.3-10.9.8-.9,2.4,2.4,1.5,1.6,4.3-2-.4-4.3-5-4.9-5-2.8-1.6-2.2,5.1-5.1,4,.5,1.1,1,4.3-1,5.5-2-.3-2.8-4.8-1.6-5.8s.7.2.7.6,1.4-1,.6-2.2l-.2,1.2c-1.1-1.2-3.8-.9-3.3-2.9-1.4,1.3-.5,2,.7,2.6-2.6-1.6-3.9.1-6.6-.8.5.6.9,2,.5,2-3.9-1.1-1.5,2.4-4,3.1-1.6-1.6.2-4.3-2.3-2.6-1.6-1.1-.6-3.1,0-4.1-2.2,2.5-4.5-1.1-5.9-1.4L408.8,0a2.7,2.7,0,0,1-2,.7l.9,2.3c-.7-.3-1.3-.3-1.4-1.3-.6,1.6.9,3.9-.4,6.2-1.1-1.2-2.9,1.5-3.5-1.6,3.2.8-.6-3.1,2-3.9a1.6,1.6,0,0,1-1.9.1.8.8,0,0,1,.3-.8c-3.2-2.6-1.1,3.6-4.1,3.8.2-1.8-1-3.3-1.5-2.9,1.2,0,.9,2.9-.1,4.4C395,5.8,395,8.2,394,8.1l1.2.6c-.2,1.8-1.2,1.6-2.5,2.3-.2-1.4,1.1-1.1.6-1.6-1.2,3.2-3.7-3-5.6-.7-1.1-1.1-.4-3.3-1.3-4-2.1,2.4-2.8-2.2-5.1-.1,1,2.3,1,1.7-.5,4.2l3.9-2.1-2.3,3.8c1.3-.1,2.5-1.8,3.3-1.5-1.1,2.1-1,1.5-.3,3.4-2-3.4-3.1,2.4-5.2.2l-.5-5.9c-3.2-2.3-4.9,3.6-8.8,2.5l1.3.9c-.3,2.3-2.3.5-3.4,1.6-.1-2-1-2.6-1.6-3.8.2,1.5-2.8.2-2.7,4.1l-2-2.4c-3.1-.7-2.9,6-5.9,5.6.7-2.2-.8-3.5,1-5.2-1,.1-1.9-.2-1.7,1.1-.8-1.1-2.5,3-3.6,1.2-.3.9-.2,3-1.3,2.9a1.9,1.9,0,0,1-.1-1c.1,1-1.6,1.6-.4,3.6-3.7-5.7-8.3,1.5-11.5-3.5a39.2,39.2,0,0,1-6.5,2.3c.1-.7-.1-1,.3-.9-2.9-1.5-1,5.9-4.2,4.2s1.4-1.9.2-3c-1.2-6.4-3.5,1.3-6-2.2l.4-.4c-1.8-2.1-3.5,2.9-6.1,2.7a1.9,1.9,0,0,0-.1-1c-1.3,3.5-4.5,5-6.8,6.3.5-2.6,1-1.5.2-4-1.1.5.8,4.1-1.3,5.1-.9-1.3-2.6-2.3-3.2-5L308,18c-1.5-3.4-2.7.5-3.9,0V16.4c-3.1,1-2.6,4.9-6.1,5.1l.5,1.1c-1.3,4.1-1.8-2-3.3,1.2l-1.1-3.9c-1.1,1.1-3.7,4.4-5.8,5.4.8-3,3.2-4.9,4.5-6.8-1.2.1-4.1.8-4.4,2.9.4-.5.9-1.5,1.5-1-1.1,3.3-2.8,5.1-5.3,5.3-.6-7.6-6.6-1-9.2-6.6-3.8,3.5-8.6.1-13.6,1.4,2.7,5.6-1.4.4-.2,6.4-1.1.5-1.5.5-1.7.1l-4.1-3c-1.1-1.7.9-1.5.6-2.9-2.6,0-1.5-2.4-3.4-3.7.7,2.1-.4,3.2-2,2.6l2.5,2.5c-3,3.7-3.9-4.6-7-.9l.9-2c-.9.7-2.6.9-4.2,1.6a6.1,6.1,0,0,0-3.6,4.6c-.5-.7-1.2-2.2-.4-2.8-4.5,0-8.9,6.8-12.8,4.4V25.9c-.8.6-1,3-2.3,1.7s.1-1.5-.3-1.5-1.7,2.9-2.9,2.3l.6-1.9c-4.6-1.1-5.9,5.2-9.2,6.9-.8-4.4-4.4-5.2-6.2-5.6v-.6c-5.1.4-7.8,5.2-12,7.8-3.8-4.2-10.1-.1-15.2-1.9.9.7.6,3.4-.2,4s-2.3,3.6-2.9-.4h.4c-1.6-3.7-3.6-2.3-5.4-2l.8,5.2c-6.1-6.6-11.2,5.2-15.1-1-.8,1.5-2.1,1.8-2.9,3.3l-.6-2.7c-3.1-.1-4.7-.2-8.3,1.3l.3-2.1c-2.1.2-.9,8.5-2.8,9.1l-1.5-4c-3.6.8-8.1-2-10.9,2.6,0-.6-.2-1.8.4-2.1-1.8.2-7.3-1.3-5.4,4.2-.9-3.7-3.9.5-5.4,2.6l-.4-2.8c-.8,3.8-.7,4.8-2.8,6.3-.6-.2-.9-2.1,0-1.5-2.2-1-.9,2.9-3.4,1.9l.4-1.9c-1.9.2-1.6,1.1-2.1,3.4s-3.8.1-4.6-2.3c.1,1.6-.5,3.8-1.7,3.4a2,2,0,0,1,0-1.9c-3.6-1.1-3.9,4.3-6.7,2.1-.3-.9-.5-1.3-.8-1.5,2.5-.6,4.6-.9,4.4-.7-.6-2.5-2.7-2.4-1.9-6.2-1.2,2.2-3,7-5.2,6.3l-.5-.8.2-.3a1.2,1.2,0,0,0-1.2.7,4,4,0,0,0-1.8-.3c-.7-2-2.6-.6-3.6-.4.8,2.7-.7,2.6,1.1,4.5-.2-.1.1-.4.8-.6s.3-.2.3-.4v.2l2.5-.8c-.5,1.6-1,3-2.5,1.8-.1,1.8-.2,3.8-.3,4.7-2.3-3.5-5.5-4.9-6.4-7.1-2.7,2.3-7,2.8-7.6,8.4-.7.9-1.4-1.2-1.9-2s1-.7,1-1.5c-1.4,1.8-5,1.8-4.5,5.5-2.6-1.1.4-3.6-2.5-2.3l.2-1.2c-7.4-4.1-7.2,11.7-15.7,6.2.6.3.9.4,1.1,1-4.1-.6-7.8,1.2-11.5,2.7S34.4,76.5,30,75.1c-2.3-.5-1.9,1.9-2.7,3.9L26,76.3l-1.2,3.9c-2.4,3.4-7.3-5.6-9.9.2l1,1.8c-1.5,0-4.1,2.4-4.5.1,0,.4.2,2.2-.7,1.3l-.5-1.5L7.6,85.7c-3-.3-1.4-6.1-5.4-5.3C1,81.4-.6,86,.3,86.8s1.7.6,2.2,2.1L1.4,90c1.1,4.6,1.5,9.4,5.6,11.6l1.4-3.4,1.4,2-1.8.7c1.6,1.7,1.8-.3,2.2-1.7a4.1,4.1,0,0,0,1.6,2.1l1-4.9c.7,1.6,0,3.7,1.7,4.3.5-2.3-2.1-3.7-.8-5.5,1.7,1.8,1.9,3.5,2.6,1.4a2.7,2.7,0,0,1,.1,2.6c.8-1.7,2.8-1.5,2.7-4,1.9,2.2,3.6-1.7,4.7,2.5.1-1.1,1.1-3.9,2-4.3-.4,5.6,4-.8,5,4.7.1-4.9,4.5-3.4,6.2-6.7,0,.4-.1,1.2-.4,1.1,1.5,0,2.3,1.2,3.4,1.8-.8-3.8,1.1-5.2,1.6-7.9,2.8,3.2.2,4.7,1.7,8.1-.9-3,2.2-3.9.9-6.3,1.9,2,1.4.8,2.9,3.8-1-4.8,1-1.1,1.3-4.3C51,89.5,50.1,92,51.8,90,53.2,91.2,51.8,93.3,51.8,93.3ZM99.2,72.4h0l-1,.5Zm4.2-1.1a7.2,7.2,0,0,0-1.9.4c-.3-1-.4-2,0-2S102.6,70.7,103.4,71.3ZM89.9,54.6c.6-.6.9-.1,1.2.5a3,3,0,0,0-1.1.6V56A7.1,7.1,0,0,1,89.9,54.6Z"/><path class="cls-1" d="M89.6,58.5c-.1.1-.1.2-.3.2l.6.6v-1Z"/><path class="cls-1" d="M478.6,6.3h-.1a.5.5,0,0,1,.2.4A.4.4,0,0,0,478.6,6.3Z"/><polygon class="cls-1" points="162.5 63.6 162.4 62.9 162.1 63.6 162.5 63.6"/><path class="cls-1" d="M502.8,14.9a.9.9,0,0,0,.3.7A1.7,1.7,0,0,0,502.8,14.9Z"/><path class="cls-1" d="M513.1,15.2l1.4,1Z"/><path class="cls-1" d="M521,16.4a5.7,5.7,0,0,0,.1-1.2h0Z"/><path class="cls-1" d="M396.2,26.8l-.3.2C395.3,27.6,395.7,27.3,396.2,26.8Z"/><path class="cls-1" d="M432.9,17.3l-1.1,1.4C432.4,18.9,433,18.9,432.9,17.3Z"/><path class="cls-1" d="M355.2,34.2Z"/><path class="cls-1" d="M430,18.8a1.3,1.3,0,0,0,1.8-.1C431.2,18.6,430.5,18.3,430,18.8Z"/><path class="cls-1" d="M555.1,17.1h.4v-.4Z"/><path class="cls-1" d="M555.5,16.8l.5-.4A.5.5,0,0,0,555.5,16.8Z"/><path class="cls-1" d="M556.8,15.7l-.8.7C556.3,16.4,556.6,16.5,556.8,15.7Z"/><path class="cls-1" d="M544.7,15.9V17C544.6,16.7,544.7,16.4,544.7,15.9Z"/><path class="cls-1" d="M541.5,16.3c.8.2,1.9,2.1,3,1.5V17C544.1,18.5,542.2,14.5,541.5,16.3Z"/><path class="cls-1" d="M528,3.9l2.7.7c-.5-1.1-1.1-2.5.1-2.8C527.3-1.4,531.5,4.2,528,3.9Z"/><path class="cls-1" d="M519.7,2.5c1.4-.5-.1-1.5,0-2.2C518.8,1.4,518.6,1.6,519.7,2.5Z"/><path class="cls-1" d="M459.8,4.9V2.4C458.7,2.8,459.9,3.4,459.8,4.9Z"/><polygon class="cls-1" points="449.2 18.8 450.4 20.3 450.7 18 449.2 18.8"/><polygon class="cls-1" points="441.3 1.1 441.8 0.7 440 1.7 441.3 1.1"/><path class="cls-1" d="M340.9,11l.7,3.1C342.3,13.5,342.1,9.9,340.9,11Z"/><path class="cls-1" d="M298.2,19.7c-.7-1.5-2.1-2.4-2.6-.7C296.6,19.1,297.7,20.1,298.2,19.7Z"/><polygon class="cls-1" points="168.6 36.5 169.3 35.2 167.9 36.4 168.6 36.5"/></g></g></svg>