<svg width="512" height="512" viewBox="0 0 512 512" fill="none" xmlns="http://www.w3.org/2000/svg">
<rect x="32" y="32" width="449" height="449" rx="89" fill="#FFFEFB"/>
<g clip-path="url(#clip0_38_6)">
<path d="M344.696 181.702L343.015 182.492L343.202 182.167L344.696 181.702Z" fill="black"/>
<path d="M220.102 286.316C216.32 290.084 205.63 293.48 197.974 295.061C196.387 294.131 193.726 292.084 190.879 288.223C188.031 284.362 184.95 278.78 182.476 269.942L198.348 248.266L212.119 237.009C213.846 242.079 215.9 248.592 217.628 255.383C224.303 281.199 220.148 286.27 220.102 286.316Z" fill="black"/>
<path d="M315.473 249.382C315.193 253.057 314.773 257.476 314.259 262.035C311.972 280.595 309.124 285.758 308.377 286.874C306.23 287.712 299.881 288.409 290.171 287.153C281.955 286.084 276.027 284.223 273.366 283.06C273.086 279.757 273.039 270.408 275.84 244.963C276.587 238.079 277.427 231.334 278.174 225.752L287.23 226.683L313.652 245.987L315.473 249.382Z" fill="black"/>
<path d="M375.319 375.394C375.153 376.606 374.748 377.773 374.126 378.828C373.505 379.883 372.68 380.805 371.699 381.54C370.718 382.276 369.6 382.81 368.411 383.112C367.221 383.415 365.984 383.479 364.769 383.302C273.226 370.371 202.456 371.115 142.096 385.721C141.379 385.902 140.642 385.996 139.902 386C137.63 385.982 135.443 385.139 133.75 383.629C132.057 382.12 130.975 380.047 130.706 377.799C130.437 375.551 130.999 373.283 132.288 371.419C133.577 369.555 135.504 368.223 137.708 367.673C147.698 365.254 157.921 363.161 168.425 361.486L158.762 335.391L168.611 303.76L173.28 290.968C174.947 294.032 176.884 296.943 179.068 299.666C186.304 308.551 193.213 310.97 194.52 311.342L196.387 311.9L198.254 311.574C200.682 311.156 222.062 307.295 231.585 297.899C239.101 290.456 239.708 275.71 233.499 251.429C231.072 241.986 228.131 233.195 226.124 227.473L255.066 223.38L261.882 224.078C261.088 230.497 260.108 238.265 259.268 246.08C258.101 257.197 257.354 266.361 257.074 273.245C256.514 286.549 257.727 290.596 260.155 293.387C265.196 299.248 278.827 301.945 286.483 303.062C290.966 303.731 295.489 304.088 300.021 304.132C306.043 304.132 312.252 303.341 316.64 300.922C321.028 298.503 325.556 293.48 328.964 274.268H329.011L341.241 303.574L345.116 335.344L341.428 361.486C349.893 362.509 358.545 363.641 367.383 364.882C369.834 365.227 372.047 366.529 373.536 368.501C375.024 370.472 375.665 372.952 375.319 375.394Z" fill="black"/>
<path d="M212.773 175.003C208.954 174.26 205.182 173.297 201.476 172.119C197.288 170.825 193.034 169.753 188.732 168.909C184.483 168.026 181.402 167.467 178.882 167.095C173.747 165.514 170.386 164.677 160.862 162.723C154.829 161.396 148.69 160.603 142.516 160.351C137.144 160.184 131.798 159.514 126.551 158.35C123.052 157.642 119.651 156.518 116.421 155.001C112.78 153.373 109.045 151.699 102.463 151.466L99.0089 150.722C92.9259 149.501 86.9113 147.964 80.9896 146.117C74.6111 144.123 68.1282 142.477 61.57 141.186C59.5086 140.754 57.3594 141.156 55.5954 142.303C53.8314 143.45 52.5969 145.249 52.1636 147.303C51.7302 149.357 52.1335 151.498 53.2848 153.256C54.436 155.014 56.2408 156.244 58.3022 156.676C64.402 157.871 70.4327 159.393 76.3681 161.234C79.0757 162.072 81.7832 162.909 85.4711 163.839C81.9328 171.708 80.1338 180.243 80.1961 188.865C80.1961 204.308 86.1713 218.542 97.0949 229.008C108.018 239.474 122.256 244.87 137.802 244.87C153.347 244.87 167.818 239.242 178.508 228.962C189.198 218.682 195.36 204.308 195.36 188.865V186.818L196.854 187.237C201.017 188.576 205.257 189.663 209.552 190.493C210.086 190.624 210.635 190.686 211.186 190.679C213.171 190.706 215.094 189.99 216.575 188.673C218.056 187.356 218.989 185.534 219.188 183.566C219.387 181.598 218.839 179.626 217.651 178.041C216.464 176.456 214.723 175.372 212.773 175.003ZM155.587 189.144L147.651 200.168L137.381 206.634L126.364 201.145L117.868 189.981L123.89 178.538L134.627 176.724C137.101 177.05 139.109 177.189 141.163 177.375C144.57 177.701 147.838 177.98 153.207 178.957L155.587 189.144ZM179.488 186.958V188.865C179.488 211.797 161.563 229.055 137.802 229.055C114.04 229.055 96.0679 211.797 96.0679 188.865C96.0679 181.004 97.8885 173.701 101.39 167.56C103.64 168.225 105.839 169.049 107.972 170.026L111.753 171.514L101.343 191.377L117.168 212.123L138.175 222.635L157.408 210.541L170.712 192.167L168.238 181.701L172.066 182.167L175.38 182.585L179.488 183.934C179.535 184.911 179.535 185.934 179.488 186.958Z" fill="black"/>
<path d="M343.202 182.167L343.015 182.492L344.696 181.702L343.202 182.167Z" fill="black"/>
<path d="M459.813 149.233C459.602 148.216 459.192 147.25 458.606 146.391C458.02 145.532 457.27 144.796 456.398 144.226C455.527 143.656 454.552 143.263 453.528 143.068C452.503 142.874 451.451 142.882 450.43 143.093C440.861 145.093 436.006 146.256 431.337 147.373C426.669 148.489 422.841 149.373 414.999 151.047C406.549 150.396 401.648 152.024 397.82 153.931C394.552 154.35 390.911 154.908 384.562 156.211L367.663 159.746L350.811 163.281C346.84 164.06 342.961 165.245 339.234 166.816H339.187C336.9 167.514 334.986 168.212 332.745 169.049C330.504 169.886 327.377 171.003 322.942 172.445L320.328 173.282C317.826 173.665 315.297 173.852 312.765 173.84C308.085 173.832 303.419 174.347 298.854 175.375C296.951 175.794 295.268 176.896 294.128 178.471C292.987 180.046 292.469 181.985 292.671 183.917C292.873 185.849 293.781 187.639 295.223 188.946C296.665 190.253 298.539 190.986 300.488 191.005C301.023 191.012 301.556 190.949 302.075 190.819C305.648 190.043 309.295 189.653 312.952 189.656L316.313 189.563C316.452 204.739 322.357 219.299 332.839 230.311C343.762 241.754 358.28 248.033 373.779 248.033C405.196 248.033 430.777 221.473 430.777 188.865C430.777 179.98 429.33 171.794 426.529 164.723L435.025 162.723C439.787 161.607 444.315 160.537 453.651 158.583C454.672 158.372 455.641 157.964 456.504 157.38C457.366 156.796 458.104 156.048 458.676 155.18C459.249 154.312 459.643 153.34 459.839 152.319C460.034 151.299 460.025 150.25 459.813 149.233ZM360.848 178.585L362.855 177.887C365.749 177.515 367.943 177.329 370.277 177.189C372.612 177.05 374.432 176.864 376.953 176.585L383.675 180.259L388.53 191.609L386.523 205.146L373.592 211.565L359.494 205.239L354.266 191.144L360.848 178.585ZM373.779 232.218C350.811 232.218 332.185 212.774 332.185 188.865C332.185 188.074 332.185 187.423 332.232 186.818C335.732 185.82 339.125 184.48 342.362 182.818L343.015 182.492L343.202 182.167L344.696 181.701L343.015 182.492L339.001 190.167L348.384 215.565L373.919 227.008L399.314 214.402L402.955 189.749L395.626 172.584C398.062 171.66 400.42 170.54 402.675 169.235H402.721C404.915 168.956 407.343 168.63 410.657 168.026C413.458 173.701 414.905 180.771 414.905 188.865C414.905 212.774 396.466 232.218 373.779 232.218Z" fill="black"/>
</g>
<defs>
<clipPath id="clip0_38_6">
<rect width="408" height="245" fill="white" transform="translate(52 141)"/>
</clipPath>
</defs>
</svg>
