<svg width="512" height="512" xmlns="http://www.w3.org/2000/svg">
  <circle cx="256" cy="256" r="256" fill="#0ea5e9"/>
  <path d="M256 128c-70.7 0-128 57.3-128 128 0 44.2 22.6 83.1 56.8 106v42h32v-28h78.4v28h32v-42c34.2-22.9 56.8-61.8 56.8-106 0-70.7-57.3-128-128-128zm-56 128c-7.7 0-14-6.3-14-14s6.3-14 14-14 14 6.3 14 14-6.3 14-14 14zm28-42c-7.7 0-14-6.3-14-14s6.3-14 14-14 14 6.3 14 14-6.3 14-14 14zm56 0c-7.7 0-14-6.3-14-14s6.3-14 14-14 14 6.3 14 14-6.3 14-14 14zm28 42c-7.7 0-14-6.3-14-14s6.3-14 14-14 14 6.3 14 14-6.3 14-14 14z" fill="white"/>
</svg>
